<svg xmlns="http://www.w3.org/2000/svg">
  <defs>
    <symbol viewBox="0 0 24 24" id="icon-available-updates">
      <path d="M12 3c-4.963 0-9 4.038-9 9h2c0-3.86 3.141-7 7-7 2.185 0 4.125 1.017 5.408 2.592L15 10h6V4l-2.166 2.166A8.96 8.96 0 0012 3zm7 9c0 3.859-3.141 7-7 7-2.185 0-4.125-1.017-5.408-2.592L9 14H3v6l2.166-2.166A8.96 8.96 0 0012 21c4.963 0 9-4.037 9-9h-2z"/>
    </symbol>
    <symbol viewBox="0 0 30 30" id="icon-bottle-of-water">
      <path d="M14 2a2 2 0 00-2 2v1c-.583 0-1.002.222-1.416.479-.414.256-.806.58-1.166.939-.36.36-.683.752-.94 1.166C8.223 7.998 8 8.417 8 9v3c0 .706.438 1.225 1 1.582v3.25a1 1 0 000 .326v3.26c-.562.357-1 .876-1 1.582v4c0 1.093.907 2 2 2h10c1.093 0 2-.907 2-2v-4c0-.706-.438-1.225-1-1.582v-3.25a1 1 0 000-.326v-3.26c.562-.357 1-.876 1-1.582V9c0-.583-.222-1.002-.479-1.416a6.546 6.546 0 00-.939-1.166 6.546 6.546 0 00-1.166-.94C19.002 5.223 18.583 5 18 5V4a2 2 0 00-2-2h-2zm-2 5h6c-.083 0 .123.028.365.178.243.15.538.389.803.654s.504.56.654.803c.15.242.178.448.178.365v3h-5a1 1 0 100 2h4v2a1 1 0 100 2v2h-4a1 1 0 100 2h5v4H10v-4h1a1 1 0 100-2v-2a1 1 0 100-2v-2a1 1 0 100-2h-1V9c0 .083.028-.123.178-.365.15-.243.389-.538.654-.803s.56-.504.803-.654c.242-.15.448-.178.365-.178z"/>
    </symbol>
    <symbol viewBox="0 0 50 50" id="icon-bottle-of-water-2">
      <path d="M22 0c-1.645 0-3 1.355-3 3v3c0 .523.184 1.059.563 1.438.28.28.64.46 1.03.53a1.264 1.264 0 01-.562.25H20c-4.543.997-8 5.005-8 9.876V21c0 1.258.89 2.152 2 2.594v12.812c-1.11.442-2 1.336-2 2.594v6c0 2.746 2.254 5 5 5h16c2.746 0 5-2.254 5-5v-6c0-1.258-.89-2.152-2-2.594V23.594c1.11-.442 2-1.336 2-2.594v-2.906c0-4.871-3.457-8.88-8-9.875h-.031a1.264 1.264 0 01-.563-.25c.39-.07.75-.25 1.032-.532C30.816 7.06 31 6.524 31 6V3c0-1.645-1.355-3-3-3zm0 2h6c.555 0 1 .445 1 1v3h-8V3c0-.555.445-1 1-1zm.656 6h4.688c.363 1.047 1.101 1.93 2.25 2.156v.031h.031C33.27 11 36 14.177 36 18.095V21c0 .555-.445 1-1 1H18v2h16v12H18v2h17c.555 0 1 .445 1 1v6a3 3 0 01-3 3H17a3 3 0 01-3-3v-6c0-.555.445-1 1-1h1V22h-1c-.555 0-1-.445-1-1v-2.906c0-3.918 2.73-7.094 6.375-7.907.016-.003.016-.027.031-.03 1.149-.227 1.887-1.11 2.25-2.157z"/>
    </symbol>
    <symbol viewBox="0 0 24 24" id="icon-circular-arrows">
      <path d="M12 2a9.937 9.937 0 00-4.11.885L8.9 4.633A7.943 7.943 0 0112 4c3.08 0 5.739 1.763 7.074 4.322L17.125 9l4.125 2 1.625-4-1.877.652C19.378 4.311 15.956 2 12 2zM6.51 4.488l-4.278.594 1.502 1.299C1.652 9.455 1.362 13.575 3.34 17a9.92 9.92 0 002.82 3.115l1.01-1.748A7.938 7.938 0 015.072 16c-1.54-2.668-1.343-5.851.205-8.287l1.563 1.35-.33-4.575zM19.93 13a7.936 7.936 0 01-1.002 3c-1.541 2.668-4.397 4.09-7.282 3.967l.39-2.03-3.796 2.575 2.653 3.406.373-1.951c3.703.267 7.416-1.54 9.394-4.967a9.925 9.925 0 001.29-4h-2.02z"/>
    </symbol>
    <symbol viewBox="0 0 24 24" id="icon-cup">
      <path d="M8 2v3h2V2H8zm4 1v2h2V3h-2zM4 7v11a4 4 0 004 4h6a4 4 0 004-4v-1h2a2 2 0 002-2v-4a2 2 0 00-2-2h-2V7H4zm2 2h10v9a2 2 0 01-2 2H8a2 2 0 01-2-2V9zm12 2h2v4h-2v-4z"/>
    </symbol>
    <symbol viewBox="0 0 24 24" id="icon-espresso-cup">
      <path d="M8 1v3h2V1H8zm4 1v2h2V2h-2zM3.78 6l2.08 10.393A2.012 2.012 0 007.82 18h6.36c.946 0 1.774-.68 1.96-1.607L16.62 14h1.88a2.01 2.01 0 001.94-1.514l.5-2C21.25 9.248 20.276 8 19 8h-1.18l.4-2H3.78zm2.439 2h9.562l-1.601 8H7.82L6.22 8zm11.2 2H19l-.5 1.998V12h-1.48l.4-2zM3 20v2h16v-2H3z"/>
    </symbol>
    <symbol viewBox="0 0 24 24" id="icon-espresso-cup-2">
      <path d="M8 1v3h2V1H8zm4 1v2h2V2h-2zM3.78 6l2.077 10.393A2.007 2.007 0 007.818 18h6.364c.949 0 1.774-.676 1.96-1.607l.48-2.393H18.5a2.01 2.01 0 001.94-1.514l.5-2C21.25 9.248 20.276 8 19 8h-1.18l.4-2H3.78zm13.64 4H19l-.5 1.998V12h-1.479l.399-2zM3 20v2h16v-2H3z"/>
    </symbol>
    <symbol viewBox="0 0 24 24" id="icon-meeting-time">
      <path d="M12 2C6.486 2 2 6.486 2 12c0 5.228 4.033 9.524 9.15 9.957.206-.744.64-1.41 1.258-1.978-.136.007-.27.021-.408.021-4.411 0-8-3.589-8-8s3.589-8 8-8c4.16 0 7.586 3.193 7.963 7.256a4.39 4.39 0 012.006 1.379c.013-.211.031-.421.031-.635 0-5.514-4.486-10-10-10zm-1 4v5.586l-3.707 3.707 1.414 1.414L13 12.414V6h-2zm7.5 7a2.5 2.5 0 00-2.5 2.5 2.5 2.5 0 002.5 2.5 2.5 2.5 0 002.5-2.5 2.5 2.5 0 00-2.5-2.5zm0 7c-3.004 0-5.5 1.211-5.5 2.957V24h11v-1.043C24 21.211 21.504 20 18.5 20z"/>
    </symbol>
    <symbol viewBox="0 0 50 50" id="icon-no-smoking">
      <path d="M28.875 4a1.008 1.008 0 00-.594.281c-.457.457-.89 1.192-1.375 2.25-.484 1.059-.933 2.383-.937 3.813-.004 1.43.476 3 1.75 4.219 1.273 1.218 3.258 2.066 6.156 2.437 2.523.32 4.234.746 5.281 1.375 1.047.629 1.555 1.395 1.875 2.844a1 1 0 101.938-.438c-.399-1.812-1.297-3.234-2.782-4.125-1.484-.89-3.437-1.32-6.062-1.656-2.629-.336-4.172-1.086-5.031-1.906-.86-.82-1.13-1.73-1.125-2.75.004-1.02.347-2.121.75-3a8.071 8.071 0 011-1.625c.324-.301.41-.778.215-1.172A.996.996 0 0028.875 4zm5.938 1c-.551.05-.958.543-.907 1.094.051.55.543.957 1.094.906 1.05 0 2.5.125 3.656.781 1.157.657 2.13 1.766 2.344 4.313.047.515.48.91 1 .906.926 0 2.828.246 3.906 1.188.54.472.91 1.062 1.032 2.062.12 1-.079 2.438-.876 4.375-.207.52.043 1.105.563 1.313a1.008 1.008 0 001.313-.563c.882-2.148 1.171-3.89 1-5.344-.172-1.453-.852-2.586-1.72-3.343-1.464-1.278-3.21-1.528-4.468-1.594-.445-2.492-1.605-4.219-3.094-5.063C37.988 5.086 36.172 5 35 5h-.187zM8.905 8.969c-.043.008-.086.02-.125.031A.994.994 0 008 9.703c-.105.367.004.758.281 1.016l36 36c.399.398 1.04.398 1.438 0a1.014 1.014 0 000-1.438L34.437 34H49c.55 0 1-.45 1-1v-8c0-.55-.45-1-1-1h-4.813a1.016 1.016 0 00-.406 0h-4.593a1.016 1.016 0 00-.407 0H24.438L9.717 9.281a1.004 1.004 0 00-.812-.312zM1 24c-.555 0-1 .445-1 1v8c0 .555.445 1 1 1h27l-2-2H2v-6h18l-2-2zm25.438 2H38v6h-5.563zM40 26h3v6h-3zm5 0h3v6h-3z"/>
    </symbol>
    <symbol viewBox="0 0 30 30" id="icon-no-smoking-2">
      <path d="M20.004-.006a1 1 0 00-.451.111S17 1.333 17 4c0 1.083.6 1.968 1.297 2.549.697.58 1.506.97 2.256 1.346.75.375 1.44.735 1.869 1.091.428.357.578.597.578 1.014a1 1 0 102 0c0-1.083-.6-1.968-1.297-2.549-.697-.58-1.506-.97-2.256-1.346-.75-.375-1.44-.735-1.869-1.091C19.15 4.657 19 4.417 19 4c0-1.333 1.447-2.105 1.447-2.105a1 1 0 00-.443-1.9zM1.707.293L.293 1.707l28 28 1.414-1.414L20.414 19H29a1 1 0 001-1v-4a1 1 0 00-1-1H14.414L1.707.293zM23 2a1 1 0 100 2c.167 0 .803.173 1.25.531.447.358.75.802.75 1.469a1 1 0 001 1c.08 0 .756.172 1.22.537.466.365.78.813.78 1.463a1 1 0 102 0c0-1.35-.735-2.402-1.545-3.037-.536-.42-1.082-.492-1.625-.637-.197-.99-.68-1.837-1.33-2.357C24.697 2.327 23.833 2 23 2zM1 13a1 1 0 00-1 1v4a1 1 0 001 1h13.83l-2-2H10v-2h.83l-2-2H1zm15.414 2H24v2h-5.586l-2-2zM26 15h2v2h-2v-2z"/>
    </symbol>
    <symbol viewBox="0 0 24 24" id="icon-no-smoking-3">
      <path d="M10 0c0 .548-.043 1.65.418 2.787.461 1.136 1.529 2.28 3.328 2.752 1.153.303 2.35.594 3.145 1.002C17.685 6.949 18 7.256 18 8h2c0-1.542-1.055-2.652-2.195-3.238-1.14-.586-2.443-.867-3.551-1.158-1.283-.337-1.714-.907-1.983-1.569C12.003 1.374 12 .595 12 0h-2zm5 0v2c.9 0 1.988.153 2.756.508.768.354 1.18.754 1.248 1.576A1 1 0 0020 5c.667 0 1.06.268 1.418.805C21.776 6.34 22 7.167 22 8h2c0-1.167-.276-2.341-.918-3.305-.517-.775-1.384-1.29-2.379-1.506-.369-1.147-1.142-2.051-2.11-2.498C17.414.146 16.1 0 15 0zM3.707 2.293L2.293 3.707 7.586 9H0v6h13.586l6.707 6.707 1.414-1.414L16.414 15h.008l-2-2h-.008l-2-2h.008l-2-2h-.008L3.707 2.293zM13.248 9l2 2H18v2h-.752l2 2H24V9H13.248zM2 11h7.586l2 2H2v-2zm18 0h2v2h-2v-2z"/>
    </symbol>
    <symbol viewBox="0 0 24 24" id="icon-no-smoking-4">
      <path d="M10.984-.014A1 1 0 0010 1c0 .548-.048 1.473.473 2.4.52.927 1.571 1.693 3.273 2.14 2.158.566 2.865 1.047 3.385 1.956a1 1 0 101.738-.992c-.814-1.425-2.251-2.28-4.615-2.9-1.38-.362-1.829-.811-2.037-1.182C12.008 2.052 12 1.595 12 1a1 1 0 00-1.016-1.014zM15 0a1 1 0 100 2c.9 0 1.988.153 2.756.508.768.354 1.18.754 1.248 1.576A1 1 0 0020 5c.833 0 1.279.193 1.543.457S22 6.167 22 7a1 1 0 102 0c0-1.167-.307-2.221-1.043-2.957-.586-.586-1.404-.84-2.291-.943-.387-1.098-1.132-1.975-2.072-2.409C17.412.146 16.1 0 15 0zM2.99 1.99a1 1 0 00-.697 1.717L7.586 9H2a2 2 0 00-2 2v2a2 2 0 002 2h11.586l6.707 6.707a1 1 0 101.414-1.414L16.414 15h.008l-2-2-2-2-2-2h-.008L3.707 2.293a1 1 0 00-.717-.303zM13.248 9l2 2 2 2 .752.752V9h-4.752zM20 9v6h2a2 2 0 002-2v-2a2 2 0 00-2-2h-2z"/>
    </symbol>
    <symbol viewBox="0 0 24 24" id="icon-stretching">
      <path d="M8.5 2a2.5 2.5 0 000 5 2.5 2.5 0 000-5zM11 8v.033a1.995 1.995 0 00-1.674 2.25l.533 3.727a1 1 0 00-.175.04l-3 1A1 1 0 006 16v6h2v-5.28l2.162-.72h2.057l.81 3.242a1 1 0 00.524.653l4 2 .894-1.79-3.588-1.794-.888-3.553a1 1 0 00-.01-.033l-.635-4.444 2.213 1.108-1.371 2.056 1.664 1.11 2-3a1 1 0 00-.385-1.45l-4-2A1 1 0 0013 8h-2z"/>
    </symbol>
    <symbol viewBox="0 0 24 24" id="icon-synchronize">
      <path d="M12 0L8 4l4 4V5c3.859 0 7 3.14 7 7 0 .88-.17 1.72-.469 2.496l1.516 1.514A8.931 8.931 0 0021 12c0-4.962-4.037-9-9-9V0zM3.953 7.99A8.931 8.931 0 003 12c0 4.962 4.037 9 9 9v3l4-4-4-4v3c-3.859 0-7-3.14-7-7 0-.88.17-1.72.469-2.496L3.953 7.99z"/>
    </symbol>
    <symbol viewBox="0 0 24 24" id="icon-update-left-rotation">
      <path d="M12 3a8.96 8.96 0 00-6.834 3.166L3 4v6h6L6.592 7.592C7.875 6.017 9.815 5 12 5c3.859 0 7 3.14 7 7h2c0-4.962-4.037-9-9-9zm-9 9c0 4.963 4.037 9 9 9a8.96 8.96 0 006.834-3.166L21 20v-6h-6l2.408 2.408C16.125 17.983 14.185 19 12 19c-3.859 0-7-3.141-7-7H3z"/>
    </symbol>
    <symbol viewBox="0 0 24 24" id="icon-water">
      <path d="M13.525 1.878a1.99 1.99 0 00-3.05 0C8.154 4.642 4 10.13 4 14c0 4.457 3.543 8 8 8s8-3.543 8-8c0-3.87-4.154-9.358-6.475-12.122z"/>
    </symbol>
    <symbol viewBox="0 0 24 24" id="icon-water-2">
      <path d="M12 .143S4 8.629 4 14c0 4.457 3.543 8 8 8s8-3.543 8-8C20 8.629 12 .143 12 .143z"/>
    </symbol>
    <symbol viewBox="0 0 24 24" id="icon-water-3">
      <path d="M12 .143S4 8.629 4 14c0 4.457 3.543 8 8 8s8-3.543 8-8C20 8.629 12 .143 12 .143zM12 20c-3.365 0-6-2.635-6-6 0-2.805 3.253-7.582 6.001-10.846C14.749 6.415 18 11.188 18 14c0 3.365-2.635 6-6 6z"/>
      <path d="M19 14a7 7 0 11-14 0c0-3.866 7-12 7-12s7 8.134 7 12z" opacity=".3"/>
    </symbol>
    <symbol viewBox="0 0 24 24" id="icon-water-4">
      <path d="M12 .143S4 8.629 4 14c0 4.457 3.543 8 8 8s8-3.543 8-8C20 8.629 12 .143 12 .143zM12 20c-3.365 0-6-2.635-6-6 0-2.805 3.253-7.582 6.001-10.846C14.749 6.415 18 11.188 18 14c0 3.365-2.635 6-6 6z"/>
    </symbol>
    <symbol viewBox="0 0 32 32" id="icon-water-5">
      <path d="M16 3.438l-.781.937s-2 2.41-4.031 5.406c-1.016 1.5-2.063 3.137-2.844 4.719C7.563 16.082 7 17.598 7 19c0 4.945 4.055 9 9 9s9-4.055 9-9c0-1.402-.563-2.918-1.344-4.5-.781-1.582-1.828-3.219-2.843-4.719-2.032-2.996-4.032-5.406-4.032-5.406zm0 3.218c.559.692 1.605 1.918 3.188 4.25.984 1.45 1.937 3.047 2.656 4.5C22.562 16.86 23 18.203 23 19c0 3.855-3.145 7-7 7s-7-3.145-7-7c0-.797.438-2.14 1.156-3.594.719-1.453 1.672-3.05 2.656-4.5 1.583-2.332 2.63-3.558 3.188-4.25zM11 19c0 2.746 2.254 5 5 5v-2a3 3 0 01-3-3z"/>
    </symbol>
    <symbol viewBox="0 0 24 24" id="icon-water-6">
      <path d="M13.858 2.809a2.567 2.567 0 00-3.716 0C7.779 5.279 4 9.872 4 14a8 8 0 0016 0c0-4.128-3.779-8.721-6.142-11.191zM12 19c-2.757 0-5-2.243-5-5a1.5 1.5 0 113 0c0 1.103.897 2 2 2a1.5 1.5 0 110 3z"/>
      <circle cx="12" cy="14" r="6" opacity=".35"/>
    </symbol>
  </defs>
</svg>