<svg xmlns="http://www.w3.org/2000/svg">
  <defs>
    <symbol viewBox="0 0 24 24" id="icon-accuracy">
      <path d="M11 1v2.059A9.02 9.02 0 003.059 11H1v2h2.059A9.02 9.02 0 0011 20.941V23h2v-2.059A9.02 9.02 0 0020.941 13H23v-2h-2.059A9.02 9.02 0 0013 3.059V1h-2zm0 4.078v2.024A5.031 5.031 0 007.102 11H5.078A6.973 6.973 0 0111 5.078zm2 0A6.973 6.973 0 0118.922 11h-2.024A5.031 5.031 0 0013 7.102V5.078zM12 9c1.669 0 3 1.331 3 3s-1.331 3-3 3-3-1.331-3-3 1.331-3 3-3zm0 2a1 1 0 00-1 1 1 1 0 001 1 1 1 0 001-1 1 1 0 00-1-1zm-6.922 2h2.024A5.031 5.031 0 0011 16.898v2.024A6.973 6.973 0 015.078 13zm11.82 0h2.024A6.973 6.973 0 0113 18.922v-2.024A5.031 5.031 0 0016.898 13z"/>
    </symbol>
    <symbol viewBox="0 0 24 24" id="icon-address">
      <path d="M12 1a6 6 0 00-6 6c0 4.286 6 11 6 11s6-6.714 6-11a6 6 0 00-6-6zm0 2c2.206 0 4 1.794 4 4 0 2.01-2.081 5.36-4.002 7.86C10.077 12.363 8 9.015 8 7c0-2.206 1.794-4 4-4zm0 2a2 2 0 00-2 2 2 2 0 002 2 2 2 0 002-2 2 2 0 00-2-2zM4.8 15L2 22h20l-2.8-7h-2.387a39.812 39.812 0 01-1.42 2h2.455l1.199 3H4.953l1.2-3h2.454a39.812 39.812 0 01-1.42-2H4.801z"/>
    </symbol>
    <symbol viewBox="0 0 24 24" id="icon-apple-arcade">
      <path d="M12 1c-.917 0-1.731.38-2.248.96A3.05 3.05 0 009 4c0 .722.235 1.458.752 2.04.316.355.753.622 1.248.786v.28a4.927 4.927 0 00-1.03.332l-7.84 3.529-.001.002c-.838.38-1.205 1.227-1.12 2.031H1v4.615c0 .543.302 1.052.803 1.301l6.492 3.215a8.34 8.34 0 007.41 0l6.488-3.211A1.45 1.45 0 0023 17.615V13h-.014c.086-.806-.28-1.655-1.12-2.033l-7.84-3.53A4.925 4.925 0 0013 7.107v-.28c.495-.165.932-.432 1.248-.788A3.05 3.05 0 0015 4a3.05 3.05 0 00-.752-2.04C13.731 1.38 12.917 1 12 1zm0 2c.417 0 .602.12.752.29.15.168.248.432.248.71 0 .278-.098.542-.248.71-.15.17-.335.29-.752.29s-.602-.12-.752-.29A1.095 1.095 0 0111 4c0-.278.098-.542.248-.71.15-.17.335-.29.752-.29zm-1 6.193V13h2V9.195c.067.025.137.037.203.067l7.824 3.521-6.677 3.612c-1.5.81-3.201.81-4.702 0l-6.677-3.612 7.822-3.521c.068-.03.138-.043.207-.069zM7.5 12a1.5 1 0 000 2 1.5 1 0 000-2zM3 15.072l5.697 3.082a6.906 6.906 0 006.604 0h.002L21 15.072v2.205l-6.182 3.06a6.32 6.32 0 01-5.636 0L3 17.278v-2.205z"/>
    </symbol>
    <symbol viewBox="0 0 24 24" id="icon-army-star">
      <path d="M12 1L9.23 8.797.96 9.02l6.56 5.043L5.178 22 12 17.32 18.822 22l-2.342-7.936 6.56-5.043-8.27-.224L12 1zM9.004 3.46a10.022 10.022 0 00-4.938 3.476l3.739-.102 1.199-3.373zm5.992 0l1.2 3.374 3.738.102a10.033 10.033 0 00-4.938-3.475zM12 6.976l1.344 3.783 4.013.11-3.181 2.446 1.136 3.852L12 14.896l-3.313 2.272 1.137-3.852-3.181-2.449 4.013-.107L12 6.975zm-9.969 5.392c-.013.21-.031.42-.031.633a9.94 9.94 0 001.988 5.96l1.225-4.146-3.182-2.447zm19.938.002l-3.182 2.445 1.225 4.147A9.94 9.94 0 0022 13c0-.213-.018-.422-.031-.63zM12 19.746l-3.7 2.535A9.924 9.924 0 0012 23a9.942 9.942 0 003.7-.717L12 19.746z"/>
    </symbol>
    <symbol viewBox="0 0 24 24" id="icon-army-star-2">
      <path d="M12 1L9.23 8.797.96 9.02l6.56 5.043L5.178 22 12 17.32 18.822 22l-2.342-7.936 6.56-5.043-8.27-.224L12 1zM9.004 3.46a10.022 10.022 0 00-4.938 3.476l3.739-.102 1.199-3.373zm5.992 0l1.2 3.374 3.738.102a10.033 10.033 0 00-4.938-3.475zM2.031 12.368c-.013.21-.031.42-.031.633a9.94 9.94 0 001.988 5.96l1.225-4.146-3.182-2.447zm19.938.002l-3.182 2.445 1.225 4.145A9.939 9.939 0 0022 13c0-.213-.018-.422-.031-.63zM12 19.746l-3.7 2.537A9.942 9.942 0 0012 23a9.942 9.942 0 003.7-.717L12 19.746z"/>
    </symbol>
    <symbol viewBox="0 0 24 24" id="icon-army-star-3">
      <path d="M12 1.986a.986.986 0 00-.943.666l-2.09 5.885-6.244.17c-.94.026-1.328 1.221-.582 1.795l4.95 3.807L5.325 20.3c-.266.903.749 1.64 1.526 1.107L12 17.875l5.15 3.533c.776.532 1.792-.204 1.526-1.107l-1.768-5.992 4.953-3.809c.745-.573.357-1.767-.584-1.793l-6.244-.17-2.092-5.885A.983.983 0 0012 1.986zM8.596 3.61A10.043 10.043 0 004.27 6.666l3.271-.09L8.596 3.61zm6.808 0l1.055 2.967 3.271.09a10.037 10.037 0 00-4.326-3.057zm-13.4 9.31c0 .028-.004.054-.004.081 0 2.082.641 4.016 1.734 5.62l1.051-3.561-2.781-2.14zm19.992 0l-2.781 2.14 1.05 3.562A9.94 9.94 0 0022 13c0-.027-.004-.052-.004-.08zM12 20.302l-3.172 2.176A9.946 9.946 0 0012 23c1.11 0 2.174-.188 3.172-.523L12 20.3z"/>
    </symbol>
    <symbol viewBox="0 0 24 24" id="icon-art-therapist">
      <path d="M12.209 1.377c-.958.017-1.9.115-2.77.236-2.32.325-4.15.889-4.15.889l.588 1.912s1.691-.52 3.84-.82c2.149-.3 4.725-.313 6.263.431.751.363 1.048.705 1.165.94.116.235.117.433.027.734-.18.602-.81 1.312-1.201 1.799a1 1 0 00-.002 0c-1.112 1.383-1.026 3.373.275 4.441 1.301 1.068 3.414 1.218 6.033.202l-.722-1.866c-2.215.86-3.54.529-4.041.118-.501-.411-.58-.9.015-1.641h-.002c.205-.254 1.173-1.192 1.559-2.479.193-.643.22-1.448-.15-2.195-.37-.746-1.071-1.363-2.084-1.853-1.127-.545-2.4-.78-3.682-.836-.32-.015-.642-.018-.961-.012zM3.236 5.113a1 1 0 00-.918.682c-.333.996-.284 2.28.07 3.684.355 1.403 1.08 2.91 2.522 3.734.683.39 1.47.593 2.25.594.087.366.273.711.541.98a1 1 0 00.049.047l8.605 7.51a1 1 0 00.006.006c.702.604 1.647.629 2.467.28a1 1 0 00.03.003l-.006-.012c.032-.014.066-.019.1-.03l-.095.042a1 1 0 00.735-.32 1 1 0 00.002-.004c.824-.896.675-2.247-.09-3.125a1 1 0 00-.002 0l-7.514-8.594a1 1 0 00-.047-.049 2.052 2.052 0 00-1.285-.59h-.023c-.005-.036-.003-.074-.008-.11-.14-.955-.563-1.873-1.326-2.513-1.212-1.017-2.656-.923-3.61-.96-.476-.02-.841-.071-1.05-.159-.21-.088-.308-.15-.452-.488a1 1 0 00-.95-.608zM4.291 8.13c.455.121.913.22 1.318.236 1.074.043 1.867.043 2.405.494.269.226.553.752.63 1.276.078.523-.044.97-.236 1.18-.549.598-1.626.664-2.506.162-.744-.426-1.3-1.404-1.574-2.489-.092-.364-.01-.507-.037-.86zm6.283 3.885l1.399 1.6-1.202 1.2-1.6-1.396 1.403-1.404zm2.719 3.107l4.703 5.377c.209.24.15.429.125.457-.03.031-.202.097-.455-.121l-5.385-4.701 1.012-1.012z"/>
    </symbol>
    <symbol viewBox="0 0 24 24" id="icon-available-updates">
      <path d="M12 3c-4.963 0-9 4.038-9 9h2c0-3.86 3.141-7 7-7 2.185 0 4.125 1.017 5.408 2.592L15 10h6V4l-2.166 2.166A8.96 8.96 0 0012 3zm7 9c0 3.859-3.141 7-7 7-2.185 0-4.125-1.017-5.408-2.592L9 14H3v6l2.166-2.166A8.96 8.96 0 0012 21c4.963 0 9-4.037 9-9h-2z"/>
    </symbol>
    <symbol viewBox="0 0 24 24" id="icon-beach">
      <path d="M15.832 3.057a7.816 7.816 0 00-2.408.422 9.568 9.568 0 00-2.807 1.542 9.434 9.434 0 00-3.162.82c-1.838.849-3.888 2.675-4.441 5.995l1.972.328c.447-2.68 1.897-3.854 3.309-4.506.057-.026.108-.036.164-.06C7.691 9.005 7 11.07 7 14h2c0-2.833.698-4.638 1.357-5.736.196-.327.374-.567.538-.77.322.486.74 1.208 1.187 2.272C13.027 12.012 14 15.62 14 21h2c0-5.621-1.024-9.508-2.076-12.01a15.51 15.51 0 00-1.022-2.01c.238.03.478.057.748.12 1.421.327 3.134 1.15 4.493 3.414l1.714-1.028C18.324 6.93 16.23 5.742 14.47 5.252c1.38-.388 3.049-.397 4.935 1.002l1.192-1.608c-1.302-.965-2.625-1.417-3.858-1.548a7.516 7.516 0 00-.906-.041zM3 19a1 1 0 00-1 1 1 1 0 001 1 1 1 0 001-1 1 1 0 00-1-1zm3 0a1 1 0 00-1 1 1 1 0 001 1 1 1 0 001-1 1 1 0 00-1-1zm3 0a1 1 0 00-1 1 1 1 0 001 1 1 1 0 001-1 1 1 0 00-1-1zm3 0a1 1 0 00-1 1 1 1 0 001 1 1 1 0 001-1 1 1 0 00-1-1zm6 0a1 1 0 00-1 1 1 1 0 001 1 1 1 0 001-1 1 1 0 00-1-1zm3 0a1 1 0 00-1 1 1 1 0 001 1 1 1 0 001-1 1 1 0 00-1-1z"/>
    </symbol>
    <symbol viewBox="0 0 24 24" id="icon-best-seller">
      <path d="M12 2C8.146 2 5 5.146 5 9a6.94 6.94 0 001.006 3.594l-3.674 3.861 3.875 1.33 1.356 4.067L12 17.414l4.438 4.438 1.353-4.061 4.06-1.354-3.853-3.853A6.939 6.939 0 0019 9c0-3.854-3.146-7-7-7zm0 2c2.773 0 5 2.227 5 5s-2.227 5-5 5-5-2.227-5-5 2.227-5 5-5zm-2 2v2h1v4h2V6h-3zm6.729 8.143l1.42 1.42-1.94.646-.646 1.94-2.274-2.274a6.977 6.977 0 003.44-1.732zm-9.446.01a6.976 6.976 0 003.428 1.722l-2.274 2.273-.644-1.933-1.863-.64 1.353-1.423z"/>
    </symbol>
    <symbol viewBox="0 0 24 24" id="icon-best-seller-2">
      <path d="M12 2C8.146 2 5 5.146 5 9c0 1.31.37 2.533 1.002 3.584l-3.854 3.854L6.21 17.79l1.354 4.06L12 17.415l4.438 4.438 1.353-4.061 4.06-1.354-3.853-3.853A6.939 6.939 0 0019 9c0-3.854-3.146-7-7-7zm0 2c2.773 0 5 2.227 5 5s-2.227 5-5 5-5-2.227-5-5 2.227-5 5-5zm-2 2v2h1v4h2V6h-3z"/>
    </symbol>
    <symbol viewBox="0 0 24 24" id="icon-bike-trainer">
      <path d="M23 17.972a3 3 0 00-2.952-2.995A8.927 8.927 0 0021 10.972c0-4.963-4.038-9-9-9s-9 4.037-9 9a8.965 8.965 0 002.844 6.547L2.85 22.028h2.401l2.195-3.306c1.338.789 2.891 1.25 4.554 1.25s3.216-.461 4.554-1.25l2.195 3.306h2.401l-.729-1.098A2.996 2.996 0 0023 17.972zm-18-7c0-3.859 3.14-7 7-7s7 3.141 7 7a6.969 6.969 0 01-1.968 4.854l-2.349-3.538c.196-.399.317-.842.317-1.316 0-1.654-1.346-3-3-3s-3 1.346-3 3c0 .474.121.917.318 1.316l-2.35 3.538A6.967 6.967 0 015 10.972zm6 0a1.001 1.001 0 111 1c-.551 0-1-.448-1-1zm1 7a6.948 6.948 0 01-3.448-.916l2.225-3.351c.374.168.786.267 1.223.267s.848-.098 1.223-.267l2.225 3.351a6.948 6.948 0 01-3.448.916zm8 1a1.001 1.001 0 010-2 1.001 1.001 0 010 2z"/>
    </symbol>
    <symbol viewBox="0 0 24 24" id="icon-boat-launch">
      <path d="M10.293 1.293l-3.57 3.57-2.403-.81A1 1 0 004.025 4 1 1 0 003 5v1.5c0 1.52.39 3.326 1.217 4.924l-2.022-.404a1 1 0 00-.197-.02A1 1 0 001 12v6c0 1.78 1.687 3 3.5 3 .943 0 1.845-.335 2.5-.902.655.567 1.557.902 2.5.902.943 0 1.845-.335 2.5-.902.655.567 1.557.902 2.5.902.943 0 1.845-.335 2.5-.902.655.567 1.557.902 2.5.902 1.813 0 3.5-1.22 3.5-3v-2a1 1 0 00-.805-.98l-2.523-.504 1.275-3.797a1 1 0 00-.627-1.266L8.836 5.578l2.871-2.871-1.414-1.414zM5 6.393l13.734 4.634-1.039 3.092-10.672-2.135C5.777 10.62 5 8.138 5 6.5v-.107zm-2 6.826l18 3.601V18c0 .43-.551 1-1.5 1s-1.5-.57-1.5-1h-2c0 .43-.551 1-1.5 1s-1.5-.57-1.5-1h-2c0 .43-.551 1-1.5 1S8 18.43 8 18H6c0 .43-.551 1-1.5 1S3 18.43 3 18v-4.781z"/>
    </symbol>
    <symbol viewBox="0 0 24 24" id="icon-body-positive-female">
      <path d="M13.983 3.184a.993.993 0 00-1.781-.773A1.983 1.983 0 0011 2a2 2 0 102 2l-.002-.02a.986.986 0 00.985-.796zM21 13l-6.003-.002-.654-3.351.071.018c.8.203 1.56.393 2.406.333 2.247-.157 3.407-.981 3.467-1.023l-.849-1.802c-.011.007-1.083.713-2.758.83-.531.037-1.08-.102-1.776-.278-.794-.201-1.694-.428-2.864-.474-1.023-.044-1.894.188-2.742.409-.98.255-1.826.475-2.792.267-1.3-.281-1.887-.713-1.893-.717l-.972 1.677c.09.072.667.612 2.443.995.419.09.82.127 1.204.127.433 0 .843-.05 1.236-.12-.166 1.79.243 4.096 2.476 5.102V22h2v-7.003L21 15v-2zM10.62 9.397c.449-.099.891-.168 1.341-.148.095.004.18.015.271.022l.727 3.726-1.457-.001c-1.295-.866-1.052-2.794-.882-3.599z"/>
    </symbol>
    <symbol viewBox="0 0 24 24" id="icon-book">
      <path d="M6 2a2 2 0 00-2 2v16a2 2 0 002 2h12a2 2 0 002-2V4a2 2 0 00-2-2H6zm0 2h2v8l3-1.5 3 1.5V4h4v16H6V4zm4 0h2v4.764l-.105-.053L11 8.264l-.895.447-.105.053V4z"/>
    </symbol>
    <symbol viewBox="0 0 24 24" id="icon-book-2">
      <path d="M18 2H6a2 2 0 00-2 2v16a2 2 0 002 2h12a2 2 0 002-2V4a2 2 0 00-2-2zm-7 10l-2.5-1.5L6 12V5a1 1 0 011-1h3a1 1 0 011 1v7z"/>
    </symbol>
    <symbol viewBox="0 0 24 24" id="icon-book-stack">
      <path d="M6 2a2 2 0 00-2 2v12a2 2 0 002 2h12a2 2 0 002-2V4a2 2 0 00-2-2H6zm0 2h2v6l3-1.5 3 1.5V4h4v12H6V4zm4 0h2v2.764l-.105-.053L11 6.264l-.895.447-.105.053V4zM4 20v2h16v-2H4z"/>
    </symbol>
    <symbol viewBox="0 0 30 30" id="icon-bottle-of-water">
      <path d="M14 2a2 2 0 00-2 2v1c-.583 0-1.002.222-1.416.479-.414.256-.806.58-1.166.939-.36.36-.683.752-.94 1.166C8.223 7.998 8 8.417 8 9v3c0 .706.438 1.225 1 1.582v3.25a1 1 0 000 .326v3.26c-.562.357-1 .876-1 1.582v4c0 1.093.907 2 2 2h10c1.093 0 2-.907 2-2v-4c0-.706-.438-1.225-1-1.582v-3.25a1 1 0 000-.326v-3.26c.562-.357 1-.876 1-1.582V9c0-.583-.222-1.002-.479-1.416a6.546 6.546 0 00-.939-1.166 6.546 6.546 0 00-1.166-.94C19.002 5.223 18.583 5 18 5V4a2 2 0 00-2-2h-2zm-2 5h6c-.083 0 .123.028.365.178.243.15.538.389.803.654s.504.56.654.803c.15.242.178.448.178.365v3h-5a1 1 0 100 2h4v2a1 1 0 100 2v2h-4a1 1 0 100 2h5v4H10v-4h1a1 1 0 100-2v-2a1 1 0 100-2v-2a1 1 0 100-2h-1V9c0 .083.028-.123.178-.365.15-.243.389-.538.654-.803s.56-.504.803-.654c.242-.15.448-.178.365-.178z"/>
    </symbol>
    <symbol viewBox="0 0 50 50" id="icon-bottle-of-water-2">
      <path d="M22 0c-1.645 0-3 1.355-3 3v3c0 .523.184 1.059.563 1.438.28.28.64.46 1.03.53a1.264 1.264 0 01-.562.25H20c-4.543.997-8 5.005-8 9.876V21c0 1.258.89 2.152 2 2.594v12.812c-1.11.442-2 1.336-2 2.594v6c0 2.746 2.254 5 5 5h16c2.746 0 5-2.254 5-5v-6c0-1.258-.89-2.152-2-2.594V23.594c1.11-.442 2-1.336 2-2.594v-2.906c0-4.871-3.457-8.88-8-9.875h-.031a1.264 1.264 0 01-.563-.25c.39-.07.75-.25 1.032-.532C30.816 7.06 31 6.524 31 6V3c0-1.645-1.355-3-3-3zm0 2h6c.555 0 1 .445 1 1v3h-8V3c0-.555.445-1 1-1zm.656 6h4.688c.363 1.047 1.101 1.93 2.25 2.156v.031h.031C33.27 11 36 14.177 36 18.095V21c0 .555-.445 1-1 1H18v2h16v12H18v2h17c.555 0 1 .445 1 1v6a3 3 0 01-3 3H17a3 3 0 01-3-3v-6c0-.555.445-1 1-1h1V22h-1c-.555 0-1-.445-1-1v-2.906c0-3.918 2.73-7.094 6.375-7.907.016-.003.016-.027.031-.03 1.149-.227 1.887-1.11 2.25-2.157z"/>
    </symbol>
    <symbol viewBox="0 0 24 24" id="icon-bungalow">
      <path d="M12 2.008c-.458 0-.916.155-1.285.465l-9.26 7.492.88.783s.647.668 1.665 1.027V19c0 1.093.907 2 2 2h12c1.093 0 2-.907 2-2v-7.225a4.717 4.717 0 001.664-1.027l.88-.783-9.259-7.492A1.997 1.997 0 0012 2.008zm0 1.996l.008.006 7.16 5.793c-.184.076-.278.197-.418.197-.29 0-.777-.196-1.125-.414v.002a2.127 2.127 0 00-2.25 0v-.002c-.348.218-.835.414-1.125.414-.29 0-.777-.196-1.125-.414v.002a2.127 2.127 0 00-2.25 0v-.002c-.348.218-.835.414-1.125.414-.29 0-.777-.196-1.125-.414v.002a2.127 2.127 0 00-2.25 0v-.002C6.027 9.804 5.54 10 5.25 10c-.14 0-.234-.12-.418-.197l7.16-5.793.008-.006zM7.437 11.28c.046-.029.08-.029.125 0 .514.322 1.254.719 2.188.719.934 0 1.674-.397 2.188-.719.045-.029.079-.029.124 0 .257.161.572.341.938.48V17h5v2H6v-7.092c.585-.134 1.07-.397 1.438-.627zm9 0c.046-.029.08-.029.125 0 .367.23.853.493 1.438.627V15h-3v-3.092c.585-.134 1.07-.397 1.438-.627zM8 14v3h3v-3H8z"/>
    </symbol>
    <symbol viewBox="0 0 24 24" id="icon-certificate">
      <path d="M12 2a.788.788 0 00-.549.223L9.945 3.678l-2.072-.293a.79.79 0 00-.889.646l-.363 2.063-1.848.98a.79.79 0 00-.34 1.045L5.354 10l-.92 1.88a.79.79 0 00.34 1.046l1.504.797L1 19l3 1 1 3 5.826-5.826.625.603a.786.786 0 001.098 0l.625-.603L19 23l1-3 3-1-5.277-5.277 1.504-.797a.79.79 0 00.34-1.045L18.646 10l.92-1.88a.79.79 0 00-.34-1.046l-1.85-.98-.361-2.063a.79.79 0 00-.889-.646l-2.074.293-1.504-1.455A.786.786 0 0012 2zm0 2.473l.664.642.703.68.969-.137.912-.129.16.909.17.962.863.46.817.433-.406.828-.43.879.43.879.404.828-.817.434-.863.457-.17.963-.16.91-.914-.13-.967-.138-.703.682-.662.642-.664-.642-.703-.68-.969.137-.912.129-.16-.909-.17-.962-.861-.46-.817-.433.404-.828.43-.879-.43-.879-.404-.828.817-.434.863-.459.17-.963.16-.908.914.13.967.136.703-.68.662-.642zm-5.035 11.39l.02.106a.79.79 0 00.888.646l.797-.113-2.797 2.797-.293-.88-.879-.292 2.264-2.264zm10.07 0l2.264 2.264-.88.293-.292.879-2.797-2.797.797.113a.79.79 0 00.889-.646l.02-.106z"/>
    </symbol>
    <symbol viewBox="0 0 24 24" id="icon-certificate-2">
      <path d="M11.844 1.969c-.2 0-.383.07-.531.218L9.905 3.5l-1.594-.313c-.5-.101-.804.227-.906.626l-.312 1.78-1.688.813c-.398.2-.511.602-.312 1L5.906 9l-.812 1.594c-.2.398.011.8.312 1l1.688.812.312 1.781c.102.399.508.727.907.626l1.874-.313 1.407 1.313c.3.3.793.3 1.094 0l1.406-1.313 1.906.313c.398.101.805-.227.906-.626l.282-1.78 1.718-.813c.399-.2.48-.602.282-1L18.093 9l.812-1.594c.2-.398.086-.8-.312-1l-1.688-.812-.312-1.782c-.102-.398-.508-.726-.907-.624l-1.874.312-1.407-1.313a.804.804 0 00-.562-.218zm-5.75 11.125L3 19.313l3.594-.5L8.406 22 11 16.687l-.188-.187-1-.906-1.406.219c-.898.101-1.8-.508-2-1.407l-.218-1.312zm11.812 0l-.312 1.312c-.2.801-.887 1.406-1.688 1.406h-.219l-1.374-.218-1 .906-.22.188L15.689 22l1.812-3.094 3.594.5z"/>
    </symbol>
    <symbol viewBox="0 0 24 24" id="icon-certificate-3">
      <path d="M12 2a.788.788 0 00-.549.223L9.945 3.678l-2.072-.293a.79.79 0 00-.889.646l-.363 2.063-1.848.98a.79.79 0 00-.34 1.045L5.354 10l-.92 1.88a.79.79 0 00.34 1.046l1.504.797L1 19l3 1 1 3 5.826-5.826.625.603a.786.786 0 001.098 0l.625-.603L19 23l1-3 3-1-5.277-5.277 1.504-.797a.79.79 0 00.34-1.045L18.646 10l.92-1.88a.79.79 0 00-.34-1.046l-1.85-.98-.361-2.063a.79.79 0 00-.889-.646l-2.074.293-1.504-1.455A.786.786 0 0012 2zm0 2.473l.664.642.703.68.969-.137.912-.129.16.909.17.962.863.46.817.433-.406.828-.43.879.43.879.404.828-.817.434-.863.457-.17.963-.16.91-.914-.13-.967-.138-.703.682-.662.642-.664-.642-.703-.68-.969.137-.912.129-.16-.909-.17-.962-.861-.46-.817-.433.404-.828.43-.879-.43-.879-.404-.828.817-.434.863-.459.17-.963.16-.908.914.13.967.136.703-.68.662-.642zm-5.035 11.39l.02.106a.79.79 0 00.888.646l.797-.113-2.797 2.797-.293-.88-.879-.292 2.264-2.264zm10.07 0l2.264 2.264-.88.293-.292.879-2.797-2.797.797.113a.79.79 0 00.889-.646l.02-.106z"/>
    </symbol>
    <symbol viewBox="0 0 24 24" id="icon-certificate-4">
      <path d="M12 2l-1.979 1.912L7.3 3.527l-.477 2.711-2.43 1.29L5.6 10l-1.207 2.473 2.43 1.289.476 2.71 2.724-.384L12 18l1.979-1.912 2.724.385.475-2.711 2.431-1.29L18.4 10l1.207-2.473-2.43-1.289-.476-2.71-2.724.384L12 2zM4.982 15.018L1 19l3 1 1 3 4.59-4.59-.246-.234-1.227.172a2.537 2.537 0 01-2.857-2.076l-.213-1.22-.065-.034zm14.036 0l-.065.035-.213 1.218a2.536 2.536 0 01-2.857 2.077l-1.227-.172-.246.236L19 23l1-3 3-1-3.982-3.982z"/>
    </symbol>
    <symbol viewBox="0 0 24 24" id="icon-circular-arrows">
      <path d="M12 2a9.937 9.937 0 00-4.11.885L8.9 4.633A7.943 7.943 0 0112 4c3.08 0 5.739 1.763 7.074 4.322L17.125 9l4.125 2 1.625-4-1.877.652C19.378 4.311 15.956 2 12 2zM6.51 4.488l-4.278.594 1.502 1.299C1.652 9.455 1.362 13.575 3.34 17a9.92 9.92 0 002.82 3.115l1.01-1.748A7.938 7.938 0 015.072 16c-1.54-2.668-1.343-5.851.205-8.287l1.563 1.35-.33-4.575zM19.93 13a7.936 7.936 0 01-1.002 3c-1.541 2.668-4.397 4.09-7.282 3.967l.39-2.03-3.796 2.575 2.653 3.406.373-1.951c3.703.267 7.416-1.54 9.394-4.967a9.925 9.925 0 001.29-4h-2.02z"/>
    </symbol>
    <symbol viewBox="0 0 24 24" id="icon-contract">
      <path d="M5 2C3.346 2 2 3.346 2 5v3h2v12h5v-2H6V8h11V5c0-.551.448-1 1-1 .565 0 1 .435 1 1v15h2V5c0-1.645-1.355-3-3-3H5zm0 2h10.172c-.111.313-.172.65-.172 1v1H4V5c0-.551.449-1 1-1zm3 6v2h9v-2H8zm0 4v2h2v-2H8zm6 0c-1.645 0-3 1.355-3 3 0 .876.392 1.662 1 2.213v3.592l2-1.25 2 1.25v-3.592c.608-.55 1-1.337 1-2.213 0-1.645-1.355-3-3-3zm0 2c.564 0 1 .436 1 1 0 .564-.436 1-1 1-.564 0-1-.436-1-1 0-.564.436-1 1-1z"/>
    </symbol>
    <symbol viewBox="0 0 24 24" id="icon-controller">
      <path d="M3 5s-2 6-2 9a5 5 0 005 5h12a5 5 0 005-5c0-3-2-9-2-9H3zm1.469 2h15.064C20.151 9.061 21 12.272 21 14c0 1.654-1.346 3-3 3H6c-1.654 0-3-1.346-3-3 0-1.724.85-4.938 1.469-7zM7 9v2H5v2h2v2h2v-2h2v-2H9V9H7zm9 0a1 1 0 00-1 1 1 1 0 001 1 1 1 0 001-1 1 1 0 00-1-1zm2 4a1 1 0 00-1 1 1 1 0 001 1 1 1 0 001-1 1 1 0 00-1-1z"/>
    </symbol>
    <symbol viewBox="0 0 24 24" id="icon-controller-2">
      <path d="M21 5H3s-2 6-2 9a5 5 0 005 5h12a5 5 0 005-5c0-3-2-9-2-9zm-10 8H9v2H7v-2H5v-2h2V9h2v2h2v2zm5-2a1 1 0 110-2 1 1 0 010 2zm2 4a1 1 0 110-2 1 1 0 010 2z"/>
    </symbol>
    <symbol viewBox="0 0 24 24" id="icon-cup">
      <path d="M8 2v3h2V2H8zm4 1v2h2V3h-2zM4 7v11a4 4 0 004 4h6a4 4 0 004-4v-1h2a2 2 0 002-2v-4a2 2 0 00-2-2h-2V7H4zm2 2h10v9a2 2 0 01-2 2H8a2 2 0 01-2-2V9zm12 2h2v4h-2v-4z"/>
    </symbol>
    <symbol viewBox="0 0 24 24" id="icon-edit-property">
      <path d="M5 3a2 2 0 00-2 2v14a2 2 0 002 2h11.172l-2-2H5V9h14l-.002 5.172 2.002 2V5a2 2 0 00-2-2H5zm0 2h14v2H5V5zm2 6v2h2v-2H7zm4 0v2h6v-2h-6zm-4 4v2h2v-2H7zm4 0v2h2v-2h-2zm4 0v2l5.146 5.146 2-2L17 15h-2zm7.854 5.854l-2 2 1 1a.5.5 0 00.707 0l1.293-1.293a.5.5 0 000-.707l-1-1z"/>
    </symbol>
    <symbol viewBox="0 0 24 24" id="icon-espresso-cup">
      <path d="M8 1v3h2V1H8zm4 1v2h2V2h-2zM3.78 6l2.08 10.393A2.012 2.012 0 007.82 18h6.36c.946 0 1.774-.68 1.96-1.607L16.62 14h1.88a2.01 2.01 0 001.94-1.514l.5-2C21.25 9.248 20.276 8 19 8h-1.18l.4-2H3.78zm2.439 2h9.562l-1.601 8H7.82L6.22 8zm11.2 2H19l-.5 1.998V12h-1.48l.4-2zM3 20v2h16v-2H3z"/>
    </symbol>
    <symbol viewBox="0 0 24 24" id="icon-espresso-cup-2">
      <path d="M8 1v3h2V1H8zm4 1v2h2V2h-2zM3.78 6l2.077 10.393A2.007 2.007 0 007.818 18h6.364c.949 0 1.774-.676 1.96-1.607l.48-2.393H18.5a2.01 2.01 0 001.94-1.514l.5-2C21.25 9.248 20.276 8 19 8h-1.18l.4-2H3.78zm13.64 4H19l-.5 1.998V12h-1.479l.399-2zM3 20v2h16v-2H3z"/>
    </symbol>
    <symbol viewBox="0 0 24 24" id="icon-exercise">
      <path d="M18 3a2 2 0 00-2 2 2 2 0 002 2 2 2 0 002-2 2 2 0 00-2-2zm-7.99.877L5.553 6.105l.894 1.79L9.99 6.123l2.063 1.076-2.278 2.172a2.496 2.496 0 00-.64 2.615L3 18.586 4.414 20l6.34-6.34 1.98 1.23-3.437 3.4 1.406 1.42 4.754-4.698-2.418-3.05 1.93-1.802 1.572 3.145 4.87-2.186-.821-1.826-3.12 1.402-1.976-3.953-5.484-2.865z"/>
    </symbol>
    <symbol viewBox="0 0 24 24" id="icon-female-meditation">
      <path d="M11.99 2a3.515 3.515 0 00-3.5 3.5c0 .138.032.267.05.4h-.108c-.342 0-1.203.063-1.786.647-.689.688-.65 1.759-.644 1.879l.023.447.541.027c.342 0 1.203-.062 1.788-.646.34-.341.5-.775.578-1.14.225.398.518.756.873 1.048-1.132.25-2.128.787-2.85 1.711-.685.878-2.496 3.383-2.496 3.383a1 1 0 00-.049.072c-.48.8-.477 1.861-.01 2.668.363.69.972 1.013 1.563 1.201.193.062.403-.016.6.016l-1.545 1.351a1 1 0 00-.05.047c-.372.373-.86.9-.96 1.701-.09.728.151 1.453.623 1.942.471.489 1.137.746 1.826.746h11c1.394 0 2.566-1.17 2.566-2.564 0-.78-.438-1.412-.853-1.827a1 1 0 00-.063-.056l-1.52-1.276c.276-.054.555-.069.827-.193.46-.21.928-.512 1.252-1.053.536-.894.338-1.896.07-2.562a1 1 0 00-.107-.2s-1.771-2.534-2.35-3.355c-.727-1.033-1.84-1.583-3.039-1.795.749-.644 1.25-1.563 1.25-2.619 0-1.922-1.58-3.5-3.5-3.5zm0 2c.84 0 1.5.66 1.5 1.5S12.831 7 11.99 7c-.84 0-1.5-.66-1.5-1.5s.66-1.5 1.5-1.5zm-1.228 5.928h2.681c.938 0 1.654.36 2.2 1.136.544.773 2.095 2.99 2.242 3.2.15.384.192.53.066.74-.01.018-.157.165-.369.262a1.799 1.799 0 01-.562.146h-.206l-1.558-.414a1 1 0 00-1.256.967v.447a1 1 0 00.357.766l3.407 2.857c.24.24.26.289.26.4 0 .394-.173.565-.567.565h-6.955v-.588c0-.26.194-.474.453-.498l3.436-.316a.499.499 0 00.072-.983C13.879 18.471 11.939 18 11.5 18h-1.314c-.954 0-1.73.776-1.73 1.729V21H6.456c-.205 0-.322-.068-.385-.133-.062-.064-.103-.123-.08-.31.01-.084.098-.235.387-.526l3.28-2.867a1 1 0 00.341-.752v-.558a1 1 0 00-1.29-.958l-1.48.446a1 1 0 00-.029.01 1.776 1.776 0 01-.629-.059c-.272-.087-.434-.269-.41-.22a1 1 0 00-.037-.07c-.181-.3-.177-.343 0-.64.07-.095 1.821-2.51 2.406-3.26.705-.902 1.147-1.175 2.23-1.175zm1.23.547c-1.422 0-2.02 2.609-2.168 3.408a.498.498 0 00.905.373c.833-1.242 1.152-1.462 1.248-1.48.106.02.565.337 1.265 1.464a.502.502 0 00.918-.355c-.149-.8-.746-3.41-2.168-3.41z"/>
    </symbol>
    <symbol viewBox="0 0 24 24" id="icon-female-meditation-2">
      <path d="M11.99 3a2.5 2.5 0 00-2.449 3h-.107c-.343 0-1.205.063-1.788.646-.689.69-.65 1.76-.644 1.88l.023.447.541.027c.343 0 1.204-.062 1.788-.646.432-.432.565-.993.613-1.397A2.489 2.489 0 0011.99 8a2.5 2.5 0 100-5zm-1.23 5.928c-1.341 0-2.202.515-3.018 1.56-.64.821-2.474 3.354-2.474 3.354-.335.559-.335 1.118 0 1.676.335.67 1.58 1.007 2.25.783l1.9-.447v.558l-3.744 2.906c-.335.335-.559.67-.559 1.118-.22.893.448 1.564 1.342 1.564h2.498v-2.123c0-.671.486-1.23 1.156-1.23h1.559c.413 0 1.326.111 2.555.558l1.119.336L10 20v2h7.457c.894 0 1.566-.67 1.566-1.564 0-.447-.222-.783-.558-1.118l-3.682-2.906v-.447l1.9.447h.337c.559 0 1.454-.335 1.789-.894.335-.56.224-1.118 0-1.676 0 0-1.774-2.539-2.348-3.354-.72-1.022-1.79-1.56-3.02-1.56H10.76zm1.23 2.049c1.117 0 1.678 3.351 1.678 3.351-.559-1.006-1.23-1.898-1.678-1.898-.447 0-1.006.78-1.676 1.898 0 0 .56-3.351 1.676-3.351z"/>
    </symbol>
    <symbol viewBox="0 0 24 24" id="icon-for-beginner">
      <path d="M11 2a8 8 0 00-8 8c0 5.004 3 4.43 3 9.24V22h9v-3h2a2 2 0 002-2v-2.979l1.426-.601a.912.912 0 00.416-1.332l-1.895-2.97A7.996 7.996 0 0011 2zm0 2a5.987 5.987 0 015.96 5.338l.052.463.252.392 1.2 1.883-.241.102-1.223.515V17h-4v3H8v-.76c0-3.007-1.017-4.475-1.834-5.654C5.489 12.608 5 11.902 5 10c0-3.308 2.692-6 6-6zm-1 2v6h2V6h-2zm0 7v2h2v-2h-2z"/>
    </symbol>
    <symbol viewBox="0 0 24 24" id="icon-go">
      <path d="M12 2C6.5 2 2 6.5 2 12s4.5 10 10 10 10-4.5 10-10S17.5 2 12 2zm0 2c4.4 0 8 3.6 8 8s-3.6 8-8 8-8-3.6-8-8 3.6-8 8-8zm3.11 4.867c-1.792 0-2.954 1.359-2.954 3.178 0 1.729 1.055 3.088 2.856 3.088 1.773 0 2.978-1.205 2.978-3.195 0-1.676-1.017-3.07-2.88-3.07zm-5.624.035c-1.989 0-3.457 1.153-3.466 3.17-.01.892.297 1.683.855 2.205.558.54 1.36.82 2.467.82.8 0 1.602-.197 2.025-.341v-3.197h-2.26v1.07h.938v1.27c-.108.053-.36.09-.676.09-1.126 0-1.908-.738-1.908-1.989 0-1.315.864-1.963 2.008-1.963.666 0 1.08.118 1.414.262l.287-1.1c-.298-.144-.9-.297-1.684-.297zm5.588 1.053c.945 0 1.469.938 1.469 2.027 0 1.18-.532 2.063-1.459 2.063-.919 0-1.477-.84-1.477-2.027 0-1.18.54-2.063 1.467-2.063z"/>
    </symbol>
    <symbol viewBox="0 0 24 24" id="icon-goal">
      <path d="M12 2C6.477 2 2 6.477 2 12s4.477 10 10 10 10-4.477 10-10a9.953 9.953 0 00-1.16-4.67l-1.496 1.498A8 8 0 1112 4a7.94 7.94 0 014.896 1.69L15.47 7.116A5.943 5.943 0 0012 6a6 6 0 106 6c0-.557-.083-1.094-.225-1.605l-1.795 1.794C15.878 14.31 14.144 16 12 16a4 4 0 010-8c.742 0 1.433.207 2.025.56l-1.51 1.51A2 2 0 0012 10a2 2 0 00-2 2 2 2 0 002 2 2 2 0 002-2 2 2 0 00-.068-.518L22 3.414 20.586 2l-2.264 2.264A9.95 9.95 0 0012 2z"/>
    </symbol>
    <symbol viewBox="0 0 24 24" id="icon-guarantee">
      <path d="M9.943 2a2.313 2.313 0 00-.709.14 2.227 2.227 0 00-1.486 2.21.253.253 0 01-.094.21.253.253 0 01-.222.055 2.229 2.229 0 00-2.436 1.08 2.227 2.227 0 00.281 2.649.262.262 0 01-.072.408 2.229 2.229 0 00-1.17 2.393c.174.985.927 1.71 1.918 1.847a.256.256 0 01.205.357 2.218 2.218 0 00.283 2.196L3.857 20h3.5v.002l1.49 3.268 3.137-5.229 3.137 5.229 1.49-3.27h3.5l-2.568-4.428a2.217 2.217 0 00.3-2.222.263.263 0 01.016-.23.255.255 0 01.192-.128 2.228 2.228 0 001.918-1.847 2.229 2.229 0 00-1.17-2.393.262.262 0 01-.072-.408 2.227 2.227 0 00.28-2.649 2.23 2.23 0 00-2.435-1.08.252.252 0 01-.222-.054.255.255 0 01-.094-.211 2.229 2.229 0 00-1.486-2.21 2.23 2.23 0 00-2.561.737c-.131.167-.283.168-.414 0A2.23 2.23 0 009.943 2zm.137 2.008a.26.26 0 01.135.096c.86 1.11 2.707 1.109 3.57 0a.242.242 0 01.297-.086c.119.043.178.13.174.255a2.247 2.247 0 00.806 1.817 2.241 2.241 0 001.928.478c.127-.027.22.016.283.125.064.11.052.215-.033.309a2.247 2.247 0 00-.55 1.91c.122.692.548 1.28 1.17 1.608.112.059.158.152.136.277-.022.125-.098.196-.223.213a2.253 2.253 0 00-1.65 1.111c-.351.608-.4 1.33-.135 1.98.048.118.023.22-.074.301-.098.081-.204.089-.309.022a2.25 2.25 0 00-1.976-.211 2.254 2.254 0 00-1.381 1.432c-.076.242-.42.242-.498 0a2.246 2.246 0 00-1.379-1.43 2.236 2.236 0 00-1.975.21c-.108.069-.21.061-.308-.02-.096-.083-.123-.184-.076-.3a2.251 2.251 0 00-.135-1.984 2.246 2.246 0 00-1.65-1.11c-.125-.016-.2-.09-.221-.214a.241.241 0 01.135-.277 2.248 2.248 0 001.17-1.606 2.245 2.245 0 00-.55-1.91c-.084-.095-.095-.199-.032-.309.064-.109.153-.153.28-.125.69.15 1.39-.025 1.928-.478.54-.451.833-1.114.807-1.817a.245.245 0 01.174-.257.262.262 0 01.162-.01zM13.793 7.5L11.5 9.793 10.207 8.5 8.793 9.916l2.707 2.707 3.707-3.707L13.793 7.5zm-4.207 8.576a.27.27 0 01.101.018c.056.02.129.065.16.166.094.288.24.54.42.76L9.06 19.033C8.705 18.42 8.077 18 7.357 18H7.33l.889-1.535c.424.006.852-.104 1.24-.348a.257.257 0 01.127-.04zm4.832 0a.256.256 0 01.129.041 2.25 2.25 0 001.201.348l.89 1.535h-.027c-.718 0-1.347.417-1.7 1.033l-1.196-1.992c.19-.224.344-.483.441-.781a.257.257 0 01.16-.166.266.266 0 01.102-.018z"/>
    </symbol>
    <symbol viewBox="0 0 24 24" id="icon-guarantee-2">
      <path d="M9.654 2.002c-.724.042-1.405.622-1.373 1.496a1.443 1.443 0 01-1.744 1.465c-1.37-.294-2.312 1.34-1.373 2.379a1.44 1.44 0 01-.394 2.24c-1.238.655-.91 2.513.476 2.705a1.443 1.443 0 011.139 1.973 1.39 1.39 0 00.082 1.24L3.857 20h3.5v.002l1.49 3.268 3.137-5.229 3.137 5.229 1.49-3.27h3.5l-2.591-4.469c.214-.357.286-.806.097-1.271a1.443 1.443 0 011.139-1.973c1.386-.192 1.712-2.05.474-2.705a1.44 1.44 0 01-.394-2.24c.939-1.04-.004-2.673-1.373-2.38a1.443 1.443 0 01-1.744-1.464c.052-1.399-1.72-2.042-2.58-.937-.578.742-1.7.742-2.278 0a1.403 1.403 0 00-1.207-.559zm4.93 4.709l1.414 1.412-4.498 4.498-3.04-3.039 1.413-1.414L11.5 9.795l3.084-3.084zm-5.467 9.098a1.442 1.442 0 011.41.775l-1.468 2.45C8.705 18.418 8.077 18 7.357 18H7.33l1.143-1.969c.005-.003.01-.004.015-.008.2-.125.414-.194.63-.214zm5.768 0c.205.019.408.087.6.2L16.638 18h-.028c-.718 0-1.347.417-1.7 1.033l-1.452-2.418c.269-.55.845-.861 1.426-.806z"/>
    </symbol>
    <symbol viewBox="0 0 24 24" id="icon-hand-with-pen">
      <path d="M18 2L2 18v4h4l2.012-2.012a4.95 4.95 0 01-.897-1.931L5.172 20H4v-1.172l3.22-3.22a4.976 4.976 0 013.387-3.387L18 4.828 19.172 6l-6 6H16l6-6-4-4zM8.656 4c-1.06 0-2.077.42-2.828 1.172L2.707 8.293c-.785.785-.935 2.065-.232 2.924A2.115 2.115 0 004.12 12c.543 0 1.086-.207 1.5-.621L6 11v-1H4.121c-.058 0-.087-.036-.094-.043-.01-.032.001-.157.094-.25l3.121-3.121c.24-.24.533-.413.85-.506L11.654 6l2-2H8.656zM21 10l-4 4h-5a3 3 0 100 6h9v-2h-9c-.551 0-1-.449-1-1 0-.551.449-1 1-1h5.828L21 12.842V10z"/>
    </symbol>
    <symbol viewBox="0 0 24 24" id="icon-hard-to-find">
      <path d="M5 3c-1.093 0-2 .907-2 2v14c0 1.093.907 2 2 2h14c1.093 0 2-.907 2-2V5c0-1.093-.907-2-2-2H5zm0 2h14v14H5v-6h4V9h2v6h4v2l3-3-3-3v2h-2V7H7v4H5V5z"/>
    </symbol>
    <symbol viewBox="0 0 24 24" id="icon-illustrator">
      <path d="M16.168 1.922l-3.783 7.103c-1.64.124-2.878.74-3.682 1.659-.902 1.031-1.266 2.301-1.547 3.498-.28 1.196-.483 2.353-.84 3.207-.338.81-.73 1.31-1.52 1.611H2v2h3c3.475 0 6.573.06 9.031-1.094 1.23-.576 2.278-1.506 2.96-2.822.648-1.254.968-2.836.997-4.803l4.075-7.248-.909-.48-4.986-2.631zm.83 2.7l2.314 1.22-2.716 4.838-2.23-1.116 2.632-4.943zm-4.205 6.394l3.182 1.59c-.06 1.565-.332 2.733-.76 3.56-.483.934-1.131 1.504-2.033 1.928-1.294.607-3.282.764-5.51.83.159-.26.377-.493.49-.764.488-1.169.682-2.415.942-3.521.259-1.107.58-2.041 1.103-2.639.496-.567 1.194-.946 2.586-.984z"/>
    </symbol>
    <symbol viewBox="0 0 24 24" id="icon-illustrator-2">
      <path d="M16 2l-3.656 7.027c-1.62.13-2.843.745-3.64 1.657-.903 1.031-1.267 2.301-1.548 3.498-.28 1.196-.483 2.353-.84 3.207-.338.81-.73 1.31-1.52 1.611H2v2h3c3.475 0 6.573.06 9.031-1.094 1.23-.576 2.278-1.506 2.96-2.822.651-1.26.972-2.849 1-4.828L22 5l-6-3zm-3.207 9.016l3.182 1.59c-.06 1.565-.332 2.733-.76 3.56-.483.934-1.131 1.504-2.033 1.928-1.294.607-3.282.764-5.51.83.159-.26.377-.493.49-.764.488-1.169.682-2.415.942-3.521.259-1.107.58-2.041 1.103-2.639.496-.567 1.194-.946 2.586-.984z"/>
    </symbol>
    <symbol viewBox="0 0 24 24" id="icon-instagram-verification-badge">
      <path d="M11.99 2.297a1 1 0 00-.627.228L9.588 3.992 7.303 3.72a1 1 0 00-1.073.69l-.699 2.193L3.46 7.605a1 1 0 00-.53 1.16l.598 2.223-1.199 1.967a1 1 0 00.182 1.26l1.703 1.549.055 2.3a1 1 0 00.834.963l2.27.381 1.288 1.906a1 1 0 001.223.36L12 20.768l2.117.906a1 1 0 001.223-.36l1.289-1.906 2.27-.38a1 1 0 00.833-.964l.055-2.3 1.703-1.55a1 1 0 00.182-1.259l-1.2-1.967.598-2.222a1 1 0 00-.529-1.16l-2.072-1.004-.7-2.194a1 1 0 00-1.072-.69l-2.285.274-1.775-1.467a1 1 0 00-.647-.228zM12 4.594l1.469 1.215a1 1 0 00.756.22l1.89-.226.578 1.814a1 1 0 00.518.596l1.713.832-.494 1.84a1 1 0 00.113.78l.99 1.626-1.408 1.28a1 1 0 00-.326.716l-.045 1.904-1.879.315a1 1 0 00-.664.428l-1.066 1.576-1.75-.75a1 1 0 00-.79 0l-1.75.75-1.066-1.576a1 1 0 00-.664-.428l-1.879-.315-.045-1.904a1 1 0 00-.326-.717l-1.408-1.279.99-1.627a1 1 0 00.113-.78l-.494-1.84 1.713-.831a1 1 0 00.518-.596l.578-1.814 1.89.226a1 1 0 00.756-.22L12 4.594zm2.088 5.025l-2.9 3.36-1.706-1.327-1.228 1.578 2.455 1.91a1 1 0 001.371-.134l3.522-4.08-1.514-1.307z"/>
    </symbol>
    <symbol viewBox="0 0 24 24" id="icon-instagram-verification-badge-2">
      <path d="M21.672 12.954l-1.199-1.965.597-2.224a1.001 1.001 0 00-.529-1.159L18.47 6.601l-.7-2.193a1 1 0 00-1.072-.689l-2.286.274-1.775-1.467a.999.999 0 00-1.274 0L9.588 3.993l-2.286-.274a1 1 0 00-1.071.688l-.7 2.193-2.072 1.006a1 1 0 00-.529 1.159l.597 2.224-1.199 1.965a1 1 0 00.181 1.261l1.704 1.548.054 2.302a1 1 0 00.834.963l2.271.381 1.29 1.907a1 1 0 001.222.359L12 20.767l2.116.907a1 1 0 001.222-.359l1.29-1.907 2.271-.381a.999.999 0 00.834-.963l.054-2.302 1.704-1.548a.998.998 0 00.181-1.26zm-6.724-1.272l-2.868 3.323a.996.996 0 01-1.371.136l-1.665-1.295a1 1 0 011.228-1.578l.916.712 2.247-2.603a.998.998 0 111.513 1.305z"/>
    </symbol>
    <symbol viewBox="0 0 24 24" id="icon-instagram-verification-badge-3">
      <path d="M20.473 10.988l.811-3.022-2.814-1.365-.952-2.981-3.106.373L12 2 9.588 3.993 6.482 3.62 5.53 6.601 2.716 7.967l.811 3.022-1.629 2.671 2.316 2.104.073 3.128 3.086.518L9.124 22 12 20.767 14.876 22l1.753-2.592 3.086-.518.073-3.128 2.316-2.104-1.631-2.67zm-9.014 4.737l-3.205-2.493 1.229-1.578 1.705 1.325 2.9-3.36 1.514 1.307-4.143 4.799z"/>
    </symbol>
    <symbol viewBox="0 0 24 24" id="icon-joint">
      <path d="M7.875 0c0 .548-.043 1.65.418 2.787.461 1.136 1.529 2.28 3.328 2.752 1.153.302 2.35.592 3.145 1 .794.408 1.109.717 1.109 1.461h2c0-1.542-1.055-2.652-2.195-3.238-1.14-.587-2.443-.868-3.551-1.158-1.283-.337-1.714-.907-1.983-1.569C9.878 1.374 9.875.595 9.875 0h-2zm6 0v2c.5 0 1.644.02 2.559.324.457.153.832.369 1.066.621.234.253.375.527.375 1.055v1h1c.701 0 1.084.242 1.428.74.344.498.572 1.306.572 2.26h2c0-1.255-.272-2.447-.928-3.396-.498-.722-1.309-1.166-2.217-1.39-.138-.63-.373-1.209-.761-1.628-.547-.591-1.235-.938-1.903-1.16C15.731-.02 14.375 0 13.875 0zM19 10L1 11v6l18 1h4v-8h-4zm0 2h2v4h-2v-4zm-2 .113v3.774l-14-.78v-2.214l14-.78z"/>
    </symbol>
    <symbol viewBox="0 0 24 24" id="icon-living-room">
      <path d="M6 4C4.355 4 3 5.355 3 7v2.188C1.843 9.604 1 10.707 1 12v4c0 1.645 1.355 3 3 3h1v2h2v-2h10v2h2v-2h1c1.645 0 3-1.355 3-3v-4c0-1.293-.843-2.395-2-2.813V7c0-1.645-1.355-3-3-3H6zm0 2h12c.565 0 1 .435 1 1v2.188c-1.157.417-2 1.519-2 2.812v1H7v-1c0-1.293-.843-2.395-2-2.813V7c0-.565.435-1 1-1zm-2 5c.565 0 1 .435 1 1v3h14v-3c0-.565.435-1 1-1s1 .435 1 1v4c0 .565-.435 1-1 1H4c-.565 0-1-.435-1-1v-4c0-.565.435-1 1-1z"/>
    </symbol>
    <symbol viewBox="0 0 24 24" id="icon-macbook-medal">
      <path d="M12 1a4 4 0 00-4 4c0 1.477.81 2.752 2 3.445V13l2-1.111L14 13V8.445c1.19-.693 2-1.968 2-3.445a4 4 0 00-4-4zm0 2a2 2 0 11.001 3.999A2 2 0 0112 3zM4 4a2 2 0 00-2 2v10a2 2 0 002 2H0v2h24v-2h-4a2 2 0 002-2V6a2 2 0 00-2-2h-2.09c.055.326.09.659.09 1 0 .341-.035.674-.09 1h2.092v10H4V6h2.09A5.998 5.998 0 016 5c0-.341.035-.674.09-1H4z"/>
    </symbol>
    <symbol viewBox="0 0 24 24" id="icon-marker-sun">
      <path d="M14 1v2h2V1h-2zM7.992 2.01C4.136 2.01 1 5.148 1 9.004c0 4.483 5.969 11.765 6.223 12.072l.77.936.77-.936c.174-.21 3.021-3.683 4.803-7.293A4.98 4.98 0 0015 14c2.75 0 5-2.25 5-5s-2.25-5-5-5c-.636 0-1.245.127-1.807.346a6.97 6.97 0 00-5.2-2.336zm11.932.62L18.51 4.048l1.414 1.412 1.414-1.414-1.414-1.414zM7.992 4.01a5 5 0 014.994 4.994c0 2.705-3.116 7.357-4.994 9.822C6.114 16.363 3 11.713 3 9.004A5 5 0 017.992 4.01zM15 6c1.668 0 3 1.332 3 3s-1.332 3-3 3a3 3 0 01-.633-.074c.378-1.033.62-2.033.62-2.922a6.946 6.946 0 00-.65-2.924A3 3 0 0115 6zm-7.008.5a2.5 2.5 0 100 5 2.5 2.5 0 000-5zM21 8v2h2V8h-2zm-1.057 4.527l-1.414 1.414 1.414 1.414 1.414-1.414-1.414-1.414zM14 15v2h2v-2h-2z"/>
    </symbol>
    <symbol viewBox="0 0 24 24" id="icon-medal">
      <path d="M4 2l.004 5 8 4 8-4L20 2H4zm8.004 9l-1.854 3.621-4.144.58 2.998 2.819L8.297 22l3.707-1.879L15.709 22l-.707-3.98L18 15.2l-4.145-.58L12.004 11zM6.002 4H9v3.262L6.002 5.764V4zM11 4h2v4.266l-.996.498L11 8.262V4zm4 0h3.002v1.764L15 7.266V4z"/>
    </symbol>
    <symbol viewBox="0 0 24 24" id="icon-medal-2">
      <path d="M4 2l.004 5 8 4 8-4L20 2H4zm8.004 9l-1.854 3.621-4.144.58 2.998 2.819L8.297 22l3.707-1.879L15.709 22l-.707-3.98L18 15.2l-4.145-.58L12.004 11zM10 4h4v3.766l-1.996.998L10 7.762V4z"/>
    </symbol>
    <symbol viewBox="0 0 24 24" id="icon-medal-3">
      <path d="M5.002 2a1 1 0 00-1 1.002l.002 3.38c0 .38.214.726.553.895l7 3.5c.139.07.29.105.441.106h.006a.985.985 0 00.445-.106l7-3.5a1 1 0 00.555-.894L20.002 3a1 1 0 00-1-1h-14zm6.996 8.883a.526.526 0 00-.475.29l-1.576 3.083-3.484.486a.534.534 0 00-.293.918l2.508 2.358-.596 3.353a.534.534 0 00.768.57l3.148-1.597 3.148 1.597a.534.534 0 00.768-.57l-.596-3.353 2.508-2.358a.535.535 0 00-.293-.918l-3.484-.486-1.576-3.082a.527.527 0 00-.475-.291zM10 4h4v3.766l-1.996.998L10 7.762V4z"/>
    </symbol>
    <symbol viewBox="0 0 24 24" id="icon-medal-second-place">
      <path d="M3.383 2l3.904 7.81A6.964 6.964 0 005 15c0 3.9 3.1 7 7 7s7-3.1 7-7a6.964 6.964 0 00-2.287-5.19L20.617 2h-2.234l-3.346 6.688a7 7 0 00-2.433-.659L15.617 2h-2.234L12 4.764 10.617 2H8.383l3.013 6.03a7 7 0 00-2.433.658L5.617 2H3.383zM12 10c2.8 0 5 2.2 5 5s-2.2 5-5 5-5-2.2-5-5 2.2-5 5-5zm.047 2C10.273 12 9.98 13.401 10 14h1.174c0-.143.135-1 .826-1 .663 0 .791.523.791.785 0 .766-1.046 1.477-2.791 3.412V18l3.988-.023-.002-.944H11.73C13.343 15.38 14 14.631 14 13.672c0-.685-.385-1.672-1.953-1.672z"/>
    </symbol>
    <symbol viewBox="0 0 24 24" id="icon-medal-second-place-2">
      <path d="M4.514 2a.7.7 0 00-.625 1.014L7.287 9.81A6.964 6.964 0 005 14.967c-.017 3.774 3.124 6.98 6.898 7.031A6.957 6.957 0 0019 15a6.964 6.964 0 00-2.287-5.19l3.398-6.796A.7.7 0 0019.486 2h-3.869a.996.996 0 00-.892.553L12 8 9.275 2.553A.996.996 0 008.383 2h-3.87zM12 10c2.8 0 5 2.2 5 5s-2.2 5-5 5-5-2.2-5-5 2.2-5 5-5zm.047 2C10.273 12 9.98 13.401 10 14h1.174c0-.143.135-1 .826-1 .663 0 .791.523.791.785 0 .766-1.046 1.477-2.791 3.412V18l3.988-.023-.002-.944H11.73C13.343 15.38 14 14.631 14 13.672c0-.685-.385-1.672-1.953-1.672z"/>
    </symbol>
    <symbol viewBox="0 0 24 24" id="icon-medal2">
      <path d="M3.383 2l3.904 7.81A6.964 6.964 0 005 15c0 3.9 3.1 7 7 7s7-3.1 7-7a6.964 6.964 0 00-2.287-5.19L20.617 2h-2.234l-3.346 6.688a7 7 0 00-2.433-.659L15.617 2h-2.234L12 4.764 10.617 2H8.383l3.013 6.03a7 7 0 00-2.433.658L5.617 2H3.383zM12 10c2.8 0 5 2.2 5 5s-2.2 5-5 5-5-2.2-5-5 2.2-5 5-5zm0 2c-.1.3-.6 1.2-1.5 1.2v1h1.1V18H13v-6h-1z"/>
    </symbol>
    <symbol viewBox="0 0 24 24" id="icon-medal2-2">
      <path d="M4.514 2a.7.7 0 00-.625 1.014L7.287 9.81A6.964 6.964 0 005 14.967c-.017 3.774 3.124 6.98 6.898 7.031A6.957 6.957 0 0019 15a6.964 6.964 0 00-2.287-5.19l3.398-6.796A.7.7 0 0019.486 2h-3.869a.996.996 0 00-.892.553L12 8 9.275 2.553A.996.996 0 008.383 2h-3.87zM12 10c2.8 0 5 2.2 5 5s-2.2 5-5 5-5-2.2-5-5 2.2-5 5-5zm0 2c-.1.3-.6 1.2-1.5 1.2v1h1.1V18H13v-6h-1z"/>
    </symbol>
    <symbol viewBox="0 0 24 24" id="icon-medal-third-place">
      <path d="M3.383 2l3.904 7.81A6.964 6.964 0 005 15c0 3.9 3.1 7 7 7s7-3.1 7-7a6.964 6.964 0 00-2.287-5.19L20.617 2h-2.234l-3.346 6.688a7 7 0 00-2.433-.659L15.617 2h-2.234L12 4.764 10.617 2H8.383l3.013 6.03a7 7 0 00-2.433.658L5.617 2H3.383zM12 10c2.8 0 5 2.2 5 5s-2.2 5-5 5-5-2.2-5-5 2.2-5 5-5zm-.031 2c-.776 0-1.88.435-1.88 1.592h1.138c0-.18.12-.658.767-.658.131 0 .777.043.777.746 0 .717-.56.804-.85.804h-.607v.907h.608c.144 0 .94-.037.94.873 0 .12-.05.799-.866.799-.688 0-.873-.535-.84-.747H10.02c-.058.617.456 1.68 1.949 1.68.833 0 2.031-.402 2.031-1.715 0-.917-.638-1.245-.96-1.363.138-.064.868-.44.868-1.254 0-.45-.195-1.664-1.94-1.664z"/>
    </symbol>
    <symbol viewBox="0 0 24 24" id="icon-meeting-time">
      <path d="M12 2C6.486 2 2 6.486 2 12c0 5.228 4.033 9.524 9.15 9.957.206-.744.64-1.41 1.258-1.978-.136.007-.27.021-.408.021-4.411 0-8-3.589-8-8s3.589-8 8-8c4.16 0 7.586 3.193 7.963 7.256a4.39 4.39 0 012.006 1.379c.013-.211.031-.421.031-.635 0-5.514-4.486-10-10-10zm-1 4v5.586l-3.707 3.707 1.414 1.414L13 12.414V6h-2zm7.5 7a2.5 2.5 0 00-2.5 2.5 2.5 2.5 0 002.5 2.5 2.5 2.5 0 002.5-2.5 2.5 2.5 0 00-2.5-2.5zm0 7c-3.004 0-5.5 1.211-5.5 2.957V24h11v-1.043C24 21.211 21.504 20 18.5 20z"/>
    </symbol>
    <symbol viewBox="0 0 24 24" id="icon-moleskine">
      <path d="M6 2c-1.093 0-2 .907-2 2v1H3a1 1 0 000 2h1v2H3a1 1 0 000 2h1v2H3a1 1 0 000 2h1v2H3a1 1 0 000 2h1v1c0 1.093.907 2 2 2h12c1.093 0 2-.907 2-2V4c0-1.093-.907-2-2-2H6zm0 2h12v16H6V4zm2 3v2h8V7H8z"/>
    </symbol>
    <symbol viewBox="0 0 50 50" id="icon-no-smoking">
      <path d="M28.875 4a1.008 1.008 0 00-.594.281c-.457.457-.89 1.192-1.375 2.25-.484 1.059-.933 2.383-.937 3.813-.004 1.43.476 3 1.75 4.219 1.273 1.218 3.258 2.066 6.156 2.437 2.523.32 4.234.746 5.281 1.375 1.047.629 1.555 1.395 1.875 2.844a1 1 0 101.938-.438c-.399-1.812-1.297-3.234-2.782-4.125-1.484-.89-3.437-1.32-6.062-1.656-2.629-.336-4.172-1.086-5.031-1.906-.86-.82-1.13-1.73-1.125-2.75.004-1.02.347-2.121.75-3a8.071 8.071 0 011-1.625c.324-.301.41-.778.215-1.172A.996.996 0 0028.875 4zm5.938 1c-.551.05-.958.543-.907 1.094.051.55.543.957 1.094.906 1.05 0 2.5.125 3.656.781 1.157.657 2.13 1.766 2.344 4.313.047.515.48.91 1 .906.926 0 2.828.246 3.906 1.188.54.472.91 1.062 1.032 2.062.12 1-.079 2.438-.876 4.375-.207.52.043 1.105.563 1.313a1.008 1.008 0 001.313-.563c.882-2.148 1.171-3.89 1-5.344-.172-1.453-.852-2.586-1.72-3.343-1.464-1.278-3.21-1.528-4.468-1.594-.445-2.492-1.605-4.219-3.094-5.063C37.988 5.086 36.172 5 35 5h-.187zM8.905 8.969c-.043.008-.086.02-.125.031A.994.994 0 008 9.703c-.105.367.004.758.281 1.016l36 36c.399.398 1.04.398 1.438 0a1.014 1.014 0 000-1.438L34.437 34H49c.55 0 1-.45 1-1v-8c0-.55-.45-1-1-1h-4.813a1.016 1.016 0 00-.406 0h-4.593a1.016 1.016 0 00-.407 0H24.438L9.717 9.281a1.004 1.004 0 00-.812-.312zM1 24c-.555 0-1 .445-1 1v8c0 .555.445 1 1 1h27l-2-2H2v-6h18l-2-2zm25.438 2H38v6h-5.563zM40 26h3v6h-3zm5 0h3v6h-3z"/>
    </symbol>
    <symbol viewBox="0 0 30 30" id="icon-no-smoking-2">
      <path d="M20.004-.006a1 1 0 00-.451.111S17 1.333 17 4c0 1.083.6 1.968 1.297 2.549.697.58 1.506.97 2.256 1.346.75.375 1.44.735 1.869 1.091.428.357.578.597.578 1.014a1 1 0 102 0c0-1.083-.6-1.968-1.297-2.549-.697-.58-1.506-.97-2.256-1.346-.75-.375-1.44-.735-1.869-1.091C19.15 4.657 19 4.417 19 4c0-1.333 1.447-2.105 1.447-2.105a1 1 0 00-.443-1.9zM1.707.293L.293 1.707l28 28 1.414-1.414L20.414 19H29a1 1 0 001-1v-4a1 1 0 00-1-1H14.414L1.707.293zM23 2a1 1 0 100 2c.167 0 .803.173 1.25.531.447.358.75.802.75 1.469a1 1 0 001 1c.08 0 .756.172 1.22.537.466.365.78.813.78 1.463a1 1 0 102 0c0-1.35-.735-2.402-1.545-3.037-.536-.42-1.082-.492-1.625-.637-.197-.99-.68-1.837-1.33-2.357C24.697 2.327 23.833 2 23 2zM1 13a1 1 0 00-1 1v4a1 1 0 001 1h13.83l-2-2H10v-2h.83l-2-2H1zm15.414 2H24v2h-5.586l-2-2zM26 15h2v2h-2v-2z"/>
    </symbol>
    <symbol viewBox="0 0 24 24" id="icon-no-smoking-3">
      <path d="M10 0c0 .548-.043 1.65.418 2.787.461 1.136 1.529 2.28 3.328 2.752 1.153.303 2.35.594 3.145 1.002C17.685 6.949 18 7.256 18 8h2c0-1.542-1.055-2.652-2.195-3.238-1.14-.586-2.443-.867-3.551-1.158-1.283-.337-1.714-.907-1.983-1.569C12.003 1.374 12 .595 12 0h-2zm5 0v2c.9 0 1.988.153 2.756.508.768.354 1.18.754 1.248 1.576A1 1 0 0020 5c.667 0 1.06.268 1.418.805C21.776 6.34 22 7.167 22 8h2c0-1.167-.276-2.341-.918-3.305-.517-.775-1.384-1.29-2.379-1.506-.369-1.147-1.142-2.051-2.11-2.498C17.414.146 16.1 0 15 0zM3.707 2.293L2.293 3.707 7.586 9H0v6h13.586l6.707 6.707 1.414-1.414L16.414 15h.008l-2-2h-.008l-2-2h.008l-2-2h-.008L3.707 2.293zM13.248 9l2 2H18v2h-.752l2 2H24V9H13.248zM2 11h7.586l2 2H2v-2zm18 0h2v2h-2v-2z"/>
    </symbol>
    <symbol viewBox="0 0 24 24" id="icon-no-smoking-4">
      <path d="M10.984-.014A1 1 0 0010 1c0 .548-.048 1.473.473 2.4.52.927 1.571 1.693 3.273 2.14 2.158.566 2.865 1.047 3.385 1.956a1 1 0 101.738-.992c-.814-1.425-2.251-2.28-4.615-2.9-1.38-.362-1.829-.811-2.037-1.182C12.008 2.052 12 1.595 12 1a1 1 0 00-1.016-1.014zM15 0a1 1 0 100 2c.9 0 1.988.153 2.756.508.768.354 1.18.754 1.248 1.576A1 1 0 0020 5c.833 0 1.279.193 1.543.457S22 6.167 22 7a1 1 0 102 0c0-1.167-.307-2.221-1.043-2.957-.586-.586-1.404-.84-2.291-.943-.387-1.098-1.132-1.975-2.072-2.409C17.412.146 16.1 0 15 0zM2.99 1.99a1 1 0 00-.697 1.717L7.586 9H2a2 2 0 00-2 2v2a2 2 0 002 2h11.586l6.707 6.707a1 1 0 101.414-1.414L16.414 15h.008l-2-2-2-2-2-2h-.008L3.707 2.293a1 1 0 00-.717-.303zM13.248 9l2 2 2 2 .752.752V9h-4.752zM20 9v6h2a2 2 0 002-2v-2a2 2 0 00-2-2h-2z"/>
    </symbol>
    <symbol viewBox="0 0 24 24" id="icon-paint-brush">
      <path d="M15.24 2.104a1.017 1.017 0 00-.713.298l-.234.235-.014.011-4.693 4.696-.707.707-.707.707-1.28 1.28a2.205 2.205 0 000 3.097l.573.572-.295.295c-.411.411-.907.64-1.633 1-.725.36-1.634.853-2.568 1.787-.714.713-1.152 1.537-1.246 2.385a2.84 2.84 0 00.793 2.312c.6.6 1.465.886 2.312.791.847-.094 1.67-.531 2.383-1.244h.002C8.147 20.1 8.64 19.19 9 18.465c.36-.726.589-1.222 1-1.633l.295-.295.572.572c.847.848 2.25.848 3.098 0l2.695-2.693-.002-.002 1.76-1.762L21.35 9.72c.006-.006.01-.014.015-.02l.23-.23a1.005 1.005 0 00.009-1.422l-.254-.254-5.145-5.145-.01-.007-.248-.248a.987.987 0 00-.707-.29zm-1.443 3.855c1.252.493-.13 1.84.176 2.275.264.376.976.305 1.945-.156.456-.217.767-.245.934-.182 1.186.45-2.003 2.31-.952 3.026.168.115.767.112 1.455-.04l-.181.184L15.242 13 11 8.758l2.467-2.469.004.004.297-.305.029-.029zm-4.211 4.213l4.244 4.244-1.28 1.28c-.082.082-.186.082-.269 0l-1.986-1.987-1.71 1.707c-.708.709-1.04 1.48-1.376 2.158-.337.679-.676 1.311-1.41 2.045-.459.458-.888.638-1.194.672-.305.034-.495-.038-.675-.219-.18-.18-.253-.37-.22-.676.035-.305.214-.732.673-1.19.734-.735 1.366-1.076 2.045-1.413.678-.337 1.45-.668 2.158-1.377l1.707-1.709-1.986-1.986c-.083-.083-.083-.187 0-.27l1.279-1.28z"/>
    </symbol>
    <symbol viewBox="0 0 24 24" id="icon-paint-palette">
      <path d="M12 2a10 10 0 00-9.975 10.713C2.392 18.002 7.005 22 12.307 22H13a2 2 0 002-2v-3a2 2 0 012-2h3a2 2 0 002-2v-.693c0-5.301-3.997-9.915-9.285-10.282C12.475 2.008 12.236 2 12 2zm0 2c.19 0 .381.007.574.02C16.738 4.309 20 7.949 20 12.307V13h-3c-2.206 0-4 1.794-4 4v3h-.693c-4.358 0-8-3.263-8.287-7.426a7.94 7.94 0 012.128-6.03A7.924 7.924 0 0112 4zm.5 1A1.5 1.5 0 0011 6.5 1.5 1.5 0 0012.5 8 1.5 1.5 0 0014 6.5 1.5 1.5 0 0012.5 5zm-4 1A1.5 1.5 0 007 7.5 1.5 1.5 0 008.5 9 1.5 1.5 0 0010 7.5 1.5 1.5 0 008.5 6zm8 1A1.5 1.5 0 0015 8.5a1.5 1.5 0 001.5 1.5A1.5 1.5 0 0018 8.5 1.5 1.5 0 0016.5 7zm-10 3A1.5 1.5 0 005 11.5 1.5 1.5 0 006.5 13 1.5 1.5 0 008 11.5 1.5 1.5 0 006.5 10zm3.5 4a2 2 0 00-2 2 2 2 0 002 2 2 2 0 002-2 2 2 0 00-2-2z"/>
    </symbol>
    <symbol viewBox="0 0 24 24" id="icon-paint-palette-2">
      <path d="M12.714 2.025C6.629 1.603 1.603 6.628 2.025 12.713 2.392 18.002 7.006 22 12.307 22H13a2 2 0 002-2v-3a2 2 0 012-2h3a2 2 0 002-2v-.693c0-5.301-3.998-9.915-9.286-10.282zM10.5 4a1.5 1.5 0 11-.001 3.001A1.5 1.5 0 0110.5 4zm-5 11a1.5 1.5 0 11.001-3.001A1.5 1.5 0 015.5 15zm1-5a1.5 1.5 0 11.001-3.001A1.5 1.5 0 016.5 10zM11 20a2 2 0 11-.001-3.999A2 2 0 0111 20zm4.5-12a1.5 1.5 0 11.001-3.001A1.5 1.5 0 0115.5 8zm3 5a1.5 1.5 0 11.001-3.001A1.5 1.5 0 0118.5 13z"/>
    </symbol>
    <symbol viewBox="0 0 24 24" id="icon-passenger-with-baggage">
      <path d="M16 2a2 2 0 00-2 2 2 2 0 002 2 2 2 0 002-2 2 2 0 00-2-2zm-2.236 5l-4.58 2.291-.498 1.492-.002-.002-1.393 4.076-2.129-.818a.999.999 0 00-1.283.594L2.06 19.436a.999.999 0 00.593 1.283l.358.17A2.993 2.993 0 016 18c.728 0 1.387.27 1.906.701l1.95-5.36.96-2.63 1.776-.889L10.016 22h2.045l1.38-6.527c.48.569 1.211 1.489 1.559 1.861V22h2v-5.303l-1.174-1.76.832-3.496c.284.504.626.94 1.024 1.295A4.9 4.9 0 0021 14v-2a2.855 2.855 0 01-1.984-.754c-.507-.453-.883-1.155-1.114-2.084C17.474 7.452 15.817 7 15 7h-1.236zM6 20a1 1 0 00-1 1 1 1 0 001 1 1 1 0 001-1 1 1 0 00-1-1z"/>
    </symbol>
    <symbol viewBox="0 0 24 24" id="icon-pen">
      <path d="M16.49 1.846a1.99 1.99 0 00-1.459.785L12.502 6h-5.24L2.488 21.512 18 16.738V11.47L21.2 8.8c.96-.72 1.062-2.168.214-3.016l-3.37-3.369a1.99 1.99 0 00-1.554-.57zm.14 1.986L20 7.199l-.02.016-2.92 2.431-2.74-2.74 2.31-3.074zM8.739 8h3.848L16 11.414v3.848l-8.447 2.6 2.931-2.932A2 2 0 0011 15a2 2 0 002-2 2 2 0 00-2-2 2 2 0 00-2 2 2 2 0 00.068.518l-2.93 2.93L8.739 8z"/>
    </symbol>
    <symbol viewBox="0 0 24 24" id="icon-pen-2">
      <path d="M16.49 1.846a1.99 1.99 0 00-1.459.785L12.502 6H8.17c-.541 0-1.02.35-1.182.867L2.608 19.33c-.077.242.225.423.404.244l6.062-6.062a1.838 1.838 0 01-.07-.475c0-.013-.004-.024-.004-.037 0-.011.004-.021.004-.031.002-.082.007-.165.023-.25A1.995 1.995 0 0111 11c.038 0 .072.01.11.012.021 0 .042-.006.064-.004.045.004.089.015.133.021.052.008.102.016.152.028.075.018.147.042.219.068.045.016.09.03.134.05.077.035.147.076.217.118.035.021.07.038.104.06.2.139.375.311.513.512.023.033.04.072.061.106.042.07.084.14.117.215.02.044.033.09.049.136.026.071.05.142.068.217.012.05.02.102.028.154.007.044.02.088.023.133.002.022-.005.042-.004.063.003.038.012.073.012.111a1.996 1.996 0 01-1.719 1.973 1.455 1.455 0 01-.25.023c-.01 0-.02.004-.031.004-.013 0-.024-.003-.037-.004a1.774 1.774 0 01-.475-.07l-6.062 6.062c-.18.18.002.479.244.403l12.463-4.381c.516-.161.867-.639.867-1.18V11.47L21.2 8.8c.96-.72 1.062-2.168.214-3.016l-3.37-3.369a1.99 1.99 0 00-1.554-.57zm.14 1.986L20 7.199a1 1 0 00-.041.033l-2.898 2.414-2.74-2.74 2.31-3.074z"/>
    </symbol>
    <symbol viewBox="0 0 24 24" id="icon-pencil">
      <path d="M18.414 2a.997.997 0 00-.707.293L5 15s1.005.005 1.5.5c.495.495.484 1.484.484 1.484s1.019.019 1.516.516c.497.497.5 1.5.5 1.5L21.707 6.293a.999.999 0 000-1.414l-2.586-2.586A.997.997 0 0018.414 2zm0 2.414l1.172 1.172-1.049 1.049-1.172-1.172 1.05-1.049zm-2.463 2.463l1.172 1.172-7.662 7.662a3.749 3.749 0 00-.775-.402 3.702 3.702 0 00-.397-.77l7.662-7.662zM3.67 17L3 21l4-.67L3.67 17z"/>
    </symbol>
    <symbol viewBox="0 0 24 24" id="icon-person-growth">
      <path d="M17 2a2 2 0 00-2 2 2 2 0 002 2 2 2 0 002-2 2 2 0 00-2-2zm-2 5a2 2 0 00-2 2v7h1v6h2v-6h2v6h2v-6h1V9a2 2 0 00-2-2h-4zm0 2h4v5h-4V9zm-7 5v8h3v-8H8zm-5 4v4h3v-4H3z"/>
    </symbol>
    <symbol viewBox="0 0 24 24" id="icon-prize">
      <path d="M9.568 1.37l-.455 1.032-.705 1.594-2.86.26.604 2.806-2.16 1.891 2.139 1.916-.637 2.8L7 13.825v9.127l5-2.5 5 2.5v-9.076l1.451-.13-.603-2.807 2.16-1.891-2.139-1.916.637-2.8-2.858-.294-1.13-2.639-2.483 1.442-2.467-1.47zm.916 2.874l1.537.916 1.55-.898.704 1.644 1.782.184-.399 1.744 1.332 1.195-1.345 1.178.376 1.75-1.783.162-.722 1.637-1.537-.916-1.55.898-.704-1.644-1.782-.184.399-1.744L7.01 8.971l1.345-1.178-.376-1.75 1.783-.162.722-1.637zm1.48 10.916l2.468 1.47.568-1.286v4.37l-3-1.5-3 1.5v-4.237l.482 1.125 2.483-1.442z"/>
    </symbol>
    <symbol viewBox="0 0 24 24" id="icon-prize-2">
      <path d="M10.027 1.68a.73.73 0 00-.748.425L8.615 3.58a.729.729 0 01-.603.43L6.4 4.145a.731.731 0 00-.654.876l.33 1.583a.729.729 0 01-.236.703L4.615 8.363a.729.729 0 00-.013 1.092L5.8 10.543a.731.731 0 01.219.707l-.366 1.574a.73.73 0 00.631.893l1.61.176a.728.728 0 01.591.441l.63 1.492a.73.73 0 001.034.35l1.405-.803a.73.73 0 01.74.01l1.383.836a.729.729 0 001.043-.324l.664-1.475a.729.729 0 01.603-.43l1.612-.135a.732.732 0 00.654-.876l-.33-1.583a.729.729 0 01.236-.703l1.225-1.056a.729.729 0 00.013-1.092L18.2 7.457a.731.731 0 01-.219-.707l.368-1.574a.73.73 0 00-.631-.893l-1.61-.176a.731.731 0 01-.593-.441l-.627-1.492a.73.73 0 00-1.035-.35l-1.405.803a.73.73 0 01-.74-.01l-1.385-.836a.723.723 0 00-.295-.101zM17 15.912l-.1.01-1.058 2.355a1.213 1.213 0 01-1.735.54l-2.21-1.338-2.243 1.283a1.211 1.211 0 01-1.718-.582L7 15.96v6.022a.63.63 0 00.91.563L12 20.5l4.09 2.045a.63.63 0 00.91-.563v-6.07z"/>
    </symbol>
    <symbol viewBox="0 0 24 24" id="icon-read-in-bed">
      <path d="M7 2a2 2 0 00-2 2 2 2 0 002 2 2 2 0 002-2 2 2 0 00-2-2zm7 0v5a1 1 0 001 1h5a1 1 0 001-1V2h-2a1 1 0 00-1 1v3.5c0 .275-.225.5-.5.5a.501.501 0 01-.5-.5V3a1 1 0 00-1-1h-2zM2 5v16h2v-2h16v2h2v-9a2 2 0 00-2-2h-7v4h7v3H4v-3h7v-4c-1.233 0-1.943-.374-2-1.055A2 2 0 005 9c0 .922.342 2.049 1.13 3H4V5H2z"/>
    </symbol>
    <symbol viewBox="0 0 24 24" id="icon-reading">
      <path d="M12 2a3 3 0 100 6 3 3 0 000-6zm0 2c.551 0 1 .449 1 1 0 .551-.449 1-1 1-.551 0-1-.449-1-1 0-.551.449-1 1-1zM3 8l.002 10.996.996.004c.045 0 4.633.045 7.295 2.707l.707.707.707-.707C15.369 19.045 19.955 19 20.002 19l.998-.004V8h-1c-.206 0-4.747.032-8 2.658C8.747 8.032 4.206 8 4 8H3zm2 2.07c1.436.161 4.106.696 6 2.383v6.504c-2.181-1.35-4.652-1.772-6-1.9V10.07zm14 .002v6.985c-1.348.13-3.819.55-6 1.9v-6.502c1.894-1.688 4.563-2.223 6-2.383z"/>
    </symbol>
    <symbol viewBox="0 0 24 24" id="icon-saving-book">
      <path d="M2 4v14a2 2 0 002 2h6.277c.347.596.984 1 1.723 1a1.99 1.99 0 001.723-1H20a2 2 0 002-2V4h-8c-.772 0-1.468.3-2 .78A2.978 2.978 0 0010 4H2zm2 2h6c.551 0 1 .449 1 1v11H4V6zm10 0h6v12h-7V7c0-.551.449-1 1-1zM6 8v2h3V8H6zm9 0v2h3V8h-3zm-9 3v2h3v-2H6zm9 0v2h3v-2h-3zm-9 3v2h3v-2H6z"/>
    </symbol>
    <symbol viewBox="0 0 24 24" id="icon-sleeping-in-bed">
      <path d="M18 3v1h1.584L18 6.295V7h3V6h-1.58L21 3.71V3h-3zM2 5v16h2v-2h16v2h2v-9a2 2 0 00-2-2h-8a2 2 0 00-2 2H8.73A2 2 0 009 11a2 2 0 00-2-2 2 2 0 00-2 2 2 2 0 00.271 1H4V5H2zm12 0v1h1.584L14 8.295V9h3V8h-1.58L17 5.71V5h-3zM4 14h16v3H4v-3z"/>
    </symbol>
    <symbol viewBox="0 0 24 24" id="icon-spiral-bound-booklet">
      <path d="M6 2c-1.093 0-2 .907-2 2v1H3a1 1 0 000 2h1v2H3a1 1 0 000 2h1v2H3a1 1 0 000 2h1v2H3a1 1 0 000 2h1v1c0 1.093.907 2 2 2h12c1.093 0 2-.907 2-2V4c0-1.093-.907-2-2-2H6zm0 2h12v16H6V4zm2 3v3h8V7H8zm0 5v2h8v-2H8zm0 3v2h8v-2H8z"/>
    </symbol>
    <symbol viewBox="0 0 24 24" id="icon-stretching">
      <path d="M8.5 2a2.5 2.5 0 000 5 2.5 2.5 0 000-5zM11 8v.033a1.995 1.995 0 00-1.674 2.25l.533 3.727a1 1 0 00-.175.04l-3 1A1 1 0 006 16v6h2v-5.28l2.162-.72h2.057l.81 3.242a1 1 0 00.524.653l4 2 .894-1.79-3.588-1.794-.888-3.553a1 1 0 00-.01-.033l-.635-4.444 2.213 1.108-1.371 2.056 1.664 1.11 2-3a1 1 0 00-.385-1.45l-4-2A1 1 0 0013 8h-2z"/>
    </symbol>
    <symbol viewBox="0 0 24 24" id="icon-super-mario">
      <path d="M12 4C8.818 4 6.233 5.832 4.402 8.033c-1.83 2.202-2.98 4.787-3.382 6.768a4.516 4.516 0 001.015 3.908 4.67 4.67 0 001.33 1.074 1 1 0 00.399.19 1 1 0 00.093.017 1 1 0 00.04.004 1 1 0 00.033.004 1 1 0 00.013 0 1 1 0 00.041.002A1 1 0 004 20h16a1 1 0 00.025-.002 1 1 0 00.05 0 1 1 0 00.025-.002 1 1 0 00.074-.01 1 1 0 00.004-.002 1 1 0 00.459-.203c.243-.13.764-.43 1.328-1.072a4.516 4.516 0 001.015-3.908c-.402-1.98-1.552-4.566-3.382-6.768C17.768 5.832 15.182 4 12 4zm0 2c2.413 0 4.47 1.399 6.06 3.313 1.592 1.913 2.643 4.327 2.96 5.886.22 1.084-.132 1.704-.56 2.19-.08.093-.088.06-.169.134-.257-.406-.509-.831-1.004-1.271C17.97 15.082 15.687 14 12 14c-3.688 0-5.97 1.081-7.287 2.252-.495.44-.747.865-1.004 1.271-.08-.073-.088-.041-.17-.134-.427-.486-.779-1.106-.559-2.19.317-1.56 1.368-3.973 2.96-5.886C7.53 7.399 9.586 6 12 6zM8.984 8a1 1 0 00-.955.758l-1 4 1.942.484.572-2.285 1.75 1.75a1 1 0 001.414 0l1.75-1.75.572 2.285 1.942-.484-1-4a1 1 0 00-1.678-.465L12 10.586 9.707 8.293A1 1 0 008.984 8zM12 16c3.306 0 5.025.919 5.959 1.748.1.09.16.167.242.252H5.8c.083-.085.141-.162.242-.252C6.975 16.918 8.694 16 12 16z"/>
    </symbol>
    <symbol viewBox="0 0 24 24" id="icon-super-mario-2">
      <path d="M12 4C8.818 4 6.233 5.832 4.402 8.033c-1.83 2.202-2.98 4.787-3.382 6.768-.326 1.602-.04 2.86.37 3.691.278.563.574.884.778 1.082a1 1 0 00.002.002 1 1 0 00.777.422A1 1 0 003 20h18a1 1 0 00.834-.428c.205-.198.499-.52.775-1.08.41-.83.697-2.089.371-3.691-.402-1.98-1.552-4.566-3.382-6.768C17.768 5.832 15.182 4 12 4zM8.979 7a.998.998 0 01.728.293L12 9.586l2.293-2.293a.995.995 0 01.996-.25c.352.107.62.4.691.762l1 5-1.959.392-.634-3.168-1.68 1.678a.997.997 0 01-1.412 0l-1.68-1.678-.635 3.168-1.96-.392 1-5A1 1 0 018.979 7zM12 15c3.259 0 5.231 1.132 6.451 2.24.29.263.526.52.729.76H4.82c.203-.24.44-.497.729-.76C6.769 16.132 8.74 15 12 15z"/>
    </symbol>
    <symbol viewBox="0 0 24 24" id="icon-synchronize">
      <path d="M12 0L8 4l4 4V5c3.859 0 7 3.14 7 7 0 .88-.17 1.72-.469 2.496l1.516 1.514A8.931 8.931 0 0021 12c0-4.962-4.037-9-9-9V0zM3.953 7.99A8.931 8.931 0 003 12c0 4.962 4.037 9 9 9v3l4-4-4-4v3c-3.859 0-7-3.14-7-7 0-.88.17-1.72.469-2.496L3.953 7.99z"/>
    </symbol>
    <symbol viewBox="0 0 24 24" id="icon-travel-card">
      <path d="M4 4c-1.103 0-2 .897-2 2v12c0 1.103.897 2 2 2h16c1.103 0 2-.897 2-2V6c0-1.103-.897-2-2-2H4zm0 2h16l.002 12H4V6zm4 2a1 1 0 00-1 1v1H6a1 1 0 00-1 1v4a1 1 0 001 1h6a1 1 0 001-1v-4a1 1 0 00-1-1h-1V9a1 1 0 00-1-1H8zm0 1h2v1H8V9zm6 5v2h2v-2h-2zm3 0v2h2v-2h-2z"/>
    </symbol>
    <symbol viewBox="0 0 24 24" id="icon-trophy">
      <path d="M2 3v1c0 2.767 1.14 4.762 2.168 6.305C5.196 11.847 6 12.945 6 14h2c0-.016-.004-.03-.004-.047C8.975 16.166 10 17 10 17h4s1.025-.834 2.004-3.047c0 .016-.004.03-.004.047h2c0-1.056.804-2.153 1.832-3.695C20.86 8.762 22 6.767 22 4V3H2zm2.191 2h2.082c.064 2.408.346 4.38.735 5.975-.371-.608-.785-1.193-1.176-1.78C5.029 7.99 4.419 6.655 4.192 5zm4.112 0h7.394v1h-.004c-.313 5.398-1.85 8.041-2.57 9h-2.24c-.74-.984-2.265-3.629-2.576-9h-.004V5zm9.424 0h2.082c-.228 1.655-.838 2.99-1.641 4.195-.391.587-.805 1.172-1.176 1.78.39-1.595.67-3.567.735-5.975zM7 19v2h10v-2H7z"/>
    </symbol>
    <symbol viewBox="0 0 24 24" id="icon-trophy-2">
      <path d="M4.068 3c-1.189 0-2.14 1.063-1.99 2.25v.002c.298 2.342 1.404 4.044 2.33 5.408C5.334 12.024 6 13.028 6 14a1 1 0 102 0c0-.016-.004-.03-.004-.047C8.975 16.166 10 17 10 17h4s1.025-.834 2.004-3.047c0 .016-.004.03-.004.047a1 1 0 102 0c0-.972.666-1.976 1.592-3.34.926-1.364 2.032-3.066 2.33-5.408C22.074 4.063 21.12 3 19.932 3H4.068zm15.87 1.998c-.236 1.853-1.095 3.206-2 4.54-.323.474-.648.956-.95 1.452.391-1.597.675-3.574.739-5.99h2.205c.01 0 .006-.003.006-.002zM4.063 5c0-.003-.006 0 .005 0h2.205c.064 2.416.348 4.393.739 5.99a35.274 35.274 0 00-.95-1.453C5.157 8.204 4.3 6.852 4.063 5zM8 19a1 1 0 000 2h8a1 1 0 000-2H8z"/>
    </symbol>
    <symbol viewBox="0 0 24 24" id="icon-trophy-3">
      <path d="M2 3v1c0 2.767 1.14 4.762 2.168 6.305C5.196 11.847 6 12.945 6 14h2c0-.016-.004-.03-.004-.047C8.975 16.166 10 17 10 17h4s1.025-.834 2.004-3.047c0 .016-.004.03-.004.047h2c0-1.056.804-2.153 1.832-3.695C20.86 8.762 22 6.767 22 4V3H2zm2.191 2h2.082c.064 2.408.346 4.38.735 5.975-.371-.608-.785-1.193-1.176-1.78C5.029 7.99 4.419 6.655 4.192 5zm13.536 0h2.082c-.228 1.655-.838 2.99-1.641 4.195-.391.587-.805 1.172-1.176 1.78.39-1.595.67-3.567.735-5.975zM7 19v2h10v-2H7z"/>
    </symbol>
    <symbol viewBox="0 0 24 24" id="icon-update-left-rotation">
      <path d="M12 3a8.96 8.96 0 00-6.834 3.166L3 4v6h6L6.592 7.592C7.875 6.017 9.815 5 12 5c3.859 0 7 3.14 7 7h2c0-4.962-4.037-9-9-9zm-9 9c0 4.963 4.037 9 9 9a8.96 8.96 0 006.834-3.166L21 20v-6h-6l2.408 2.408C16.125 17.983 14.185 19 12 19c-3.859 0-7-3.141-7-7H3z"/>
    </symbol>
    <symbol viewBox="0 0 24 24" id="icon-verified-account">
      <path d="M9.002 2.01c-1.079.055-2.104.677-2.61 1.668l-.917 1.797-1.797.918A3.063 3.063 0 002.15 10.08L2.771 12l-.62 1.922a3.061 3.061 0 001.525 3.687l1.797.916.92 1.797c.675 1.322 2.277 1.988 3.685 1.53L12 21.229l1.92.62a3.064 3.064 0 003.688-1.527l.917-1.797 1.8-.918a3.063 3.063 0 001.525-3.687L21.229 12l.62-1.92a3.06 3.06 0 00-1.525-3.687l-1.797-.918-.92-1.797c-.673-1.321-2.278-1.985-3.685-1.528L12 2.771l-1.92-.619a2.988 2.988 0 00-1.078-.142zm.08 1.992c.126-.006.256.009.383.05l2.226.721c.201.065.419.065.62 0l2.228-.722a1.085 1.085 0 011.287.535l1.067 2.086c.096.187.246.34.433.435l2.088 1.067c.473.242.697.785.533 1.29l-.72 2.227a.995.995 0 000 .616l.1.308.62 1.92a1.071 1.071 0 01-.533 1.291l-2.088 1.067a.998.998 0 00-.433.433l-1.067 2.086a1.08 1.08 0 01-1.289.535l-2.228-.72a.986.986 0 00-.618 0l-2.228.722a1.088 1.088 0 01-1.29-.535L7.11 17.328a1.007 1.007 0 00-.435-.435l-2.086-1.067a1.073 1.073 0 01-.535-1.29l.72-2.227a.995.995 0 000-.616l-.72-2.228a1.072 1.072 0 01.535-1.291l2.086-1.067a.998.998 0 00.433-.433l1.067-2.086c.176-.347.53-.568.908-.586zm7.211 4.291L11 13.586l-2.293-2.293-1.414 1.414L11 16.414l6.707-6.707-1.414-1.414z"/>
    </symbol>
    <symbol viewBox="0 0 24 24" id="icon-verified-account-2">
      <path d="M21.228 12l.622-1.92c.465-1.437-.182-3-1.527-3.687l-1.797-.918-.918-1.797a3.076 3.076 0 00-3.687-1.527L12 2.772l-1.92-.622a3.077 3.077 0 00-3.687 1.527l-.919 1.797-1.797.919A3.077 3.077 0 002.15 10.08L2.772 12l-.622 1.92c-.465 1.437.182 3 1.527 3.687l1.797.918.918 1.797a3.076 3.076 0 003.687 1.527L12 21.228l1.92.622c1.437.465 3-.182 3.687-1.527l.918-1.797 1.797-.918a3.076 3.076 0 001.527-3.687L21.228 12zm-10.935 3.707L8 13.414A1 1 0 019.414 12L11 13.586 15.586 9A1 1 0 0117 10.414l-5.293 5.293a1 1 0 01-1.414 0z"/>
    </symbol>
    <symbol viewBox="0 0 24 24" id="icon-verified-account-3">
      <path d="M20.659 12L22 7.858l-3.877-1.981L16.142 2 12 3.341 7.858 2 5.877 5.877 2 7.858 3.341 12 2 16.142l3.877 1.981L7.858 22 12 20.659 16.142 22l1.981-3.877L22 16.142 20.659 12zM11 16.414l-3.707-3.707 1.414-1.414L11 13.586l5.293-5.293 1.414 1.414L11 16.414z"/>
    </symbol>
    <symbol viewBox="0 0 24 24" id="icon-vision">
      <path d="M3 1c-1.093 0-2 .907-2 2v3h2V3h3V1H3zm15 0v2h3v3h2V3c0-1.093-.907-2-2-2h-3zm-6 3C4 4 1 12 1 12s3 8 11 8 11-8 11-8-3-8-11-8zm0 2c5.276 0 7.945 4.267 8.809 5.996C19.944 13.713 17.255 18 12 18c-5.276 0-7.945-4.267-8.809-5.996C4.057 10.287 6.745 6 12 6zm0 2a4 4 0 100 8 4 4 0 000-8zm0 2a2 2 0 11.001 3.999A2 2 0 0112 10zM1 18v3c0 1.093.907 2 2 2h3v-2H3v-3H1zm20 0v3h-3v2h3c1.093 0 2-.907 2-2v-3h-2z"/>
    </symbol>
    <symbol viewBox="0 0 24 24" id="icon-walking">
      <path d="M13 2a2 2 0 00-2 2 2 2 0 002 2 2 2 0 002-2 2 2 0 00-2-2zm-2.236 5l-4.58 2.291-1.131 3.393 1.894.632.87-2.605 1.775-.889L7.016 22H9.06l1.38-6.527c.48.569 1.211 1.489 1.559 1.861V22h2v-5.303l-1.174-1.76.832-3.496c.284.504.626.94 1.024 1.295A4.9 4.9 0 0018 14v-2a2.855 2.855 0 01-1.984-.754c-.507-.453-.883-1.155-1.114-2.084C14.474 7.452 12.817 7 12 7h-1.236z"/>
    </symbol>
    <symbol viewBox="0 0 24 24" id="icon-warranty">
      <path d="M9.945 2a2.326 2.326 0 00-.71.14 2.227 2.227 0 00-1.487 2.21.253.253 0 01-.094.21.253.253 0 01-.222.055 2.229 2.229 0 00-2.436 1.08 2.227 2.227 0 00.281 2.649.262.262 0 01-.072.408 2.229 2.229 0 00-1.17 2.393c.174.985.927 1.71 1.918 1.847a.256.256 0 01.205.357 2.218 2.218 0 00.283 2.196L3.857 20h3.5v.002l1.49 3.268 3.137-5.229 3.137 5.229 1.49-3.27h3.5l-2.568-4.428a2.217 2.217 0 00.3-2.222.263.263 0 01.016-.23.255.255 0 01.192-.128 2.228 2.228 0 001.918-1.847 2.229 2.229 0 00-1.17-2.393.262.262 0 01-.072-.408 2.227 2.227 0 00.28-2.649 2.229 2.229 0 00-2.435-1.08.252.252 0 01-.222-.054.255.255 0 01-.094-.211 2.229 2.229 0 00-1.486-2.21 2.23 2.23 0 00-2.561.737c-.131.167-.283.168-.414 0A2.227 2.227 0 009.945 2zm.135 2.008a.26.26 0 01.135.096c.86 1.11 2.707 1.109 3.57 0 .078-.1.18-.13.297-.086.119.043.178.13.174.255a2.247 2.247 0 00.806 1.817 2.241 2.241 0 001.928.478c.127-.027.22.016.283.125.064.11.052.215-.033.309a2.247 2.247 0 00-.55 1.91c.122.692.548 1.28 1.17 1.608.112.059.158.152.136.277-.022.125-.098.196-.223.213a2.253 2.253 0 00-1.65 1.111c-.351.608-.4 1.33-.135 1.98.048.118.023.22-.074.301-.098.081-.204.089-.309.022a2.246 2.246 0 00-1.976-.211 2.254 2.254 0 00-1.381 1.432c-.076.242-.42.242-.498 0a2.246 2.246 0 00-1.379-1.43 2.236 2.236 0 00-1.975.21c-.108.069-.21.061-.308-.02-.096-.083-.123-.184-.076-.3a2.251 2.251 0 00-.135-1.984 2.246 2.246 0 00-1.65-1.11c-.125-.016-.2-.09-.221-.214a.241.241 0 01.135-.277 2.248 2.248 0 001.17-1.606 2.245 2.245 0 00-.55-1.91c-.084-.095-.095-.199-.032-.309.063-.109.153-.153.28-.125.69.15 1.39-.025 1.928-.478.54-.451.833-1.114.807-1.817a.245.245 0 01.174-.257.262.262 0 01.162-.01zm-.494 12.068a.267.267 0 01.101.018c.056.02.129.065.16.166.094.288.24.54.42.76L9.06 19.033C8.705 18.42 8.077 18 7.357 18H7.33l.889-1.535c.424.006.852-.104 1.24-.348a.256.256 0 01.127-.04zm4.83 0c.04.002.085.012.13.041a2.25 2.25 0 001.202.348l.89 1.535h-.027c-.718 0-1.347.417-1.7 1.033l-1.196-1.992c.19-.224.344-.483.441-.781a.255.255 0 01.16-.166c.027-.01.06-.02.1-.018z"/>
    </symbol>
    <symbol viewBox="0 0 24 24" id="icon-warranty-2">
      <path d="M9.654 2.002c-.724.042-1.405.622-1.373 1.496a1.443 1.443 0 01-1.744 1.465c-1.369-.294-2.312 1.34-1.373 2.379a1.44 1.44 0 01-.396 2.24c-1.238.655-.91 2.513.476 2.705a1.443 1.443 0 011.139 1.973 1.39 1.39 0 00.084 1.242l-1.738 2.996A1 1 0 005.594 20h1.763v.002l.702 1.537a1 1 0 001.767.1l2.158-3.598 2.159 3.598a1 1 0 001.767-.1L16.611 20h1.764a1 1 0 00.865-1.502l-1.72-2.969c.213-.356.284-.805.095-1.27a1.443 1.443 0 011.139-1.972c1.387-.192 1.714-2.05.476-2.705a1.44 1.44 0 01-.394-2.24c.939-1.04-.004-2.673-1.373-2.38a1.443 1.443 0 01-1.744-1.464c.052-1.399-1.72-2.042-2.58-.937-.578.743-1.7.743-2.278 0a1.402 1.402 0 00-1.207-.559zm-.539 13.807a1.443 1.443 0 011.412.777L9.06 19.033C8.705 18.42 8.077 18 7.357 18H7.33l1.143-1.97.013-.007c.2-.125.414-.194.63-.214zm5.768 0c.206.02.411.087.603.203L16.64 18h-.028c-.718 0-1.347.417-1.7 1.033l-1.452-2.42c.27-.549.843-.86 1.424-.804z"/>
    </symbol>
    <symbol viewBox="0 0 24 24" id="icon-water">
      <path d="M13.525 1.878a1.99 1.99 0 00-3.05 0C8.154 4.642 4 10.13 4 14c0 4.457 3.543 8 8 8s8-3.543 8-8c0-3.87-4.154-9.358-6.475-12.122z"/>
    </symbol>
    <symbol viewBox="0 0 24 24" id="icon-water-2">
      <path d="M12 .143S4 8.629 4 14c0 4.457 3.543 8 8 8s8-3.543 8-8C20 8.629 12 .143 12 .143z"/>
    </symbol>
    <symbol viewBox="0 0 24 24" id="icon-water-3">
      <path d="M12 .143S4 8.629 4 14c0 4.457 3.543 8 8 8s8-3.543 8-8C20 8.629 12 .143 12 .143zM12 20c-3.365 0-6-2.635-6-6 0-2.805 3.253-7.582 6.001-10.846C14.749 6.415 18 11.188 18 14c0 3.365-2.635 6-6 6z"/>
      <path d="M19 14a7 7 0 11-14 0c0-3.866 7-12 7-12s7 8.134 7 12z" opacity=".3"/>
    </symbol>
    <symbol viewBox="0 0 24 24" id="icon-water-4">
      <path d="M12 .143S4 8.629 4 14c0 4.457 3.543 8 8 8s8-3.543 8-8C20 8.629 12 .143 12 .143zM12 20c-3.365 0-6-2.635-6-6 0-2.805 3.253-7.582 6.001-10.846C14.749 6.415 18 11.188 18 14c0 3.365-2.635 6-6 6z"/>
    </symbol>
    <symbol viewBox="0 0 32 32" id="icon-water-5">
      <path d="M16 3.438l-.781.937s-2 2.41-4.031 5.406c-1.016 1.5-2.063 3.137-2.844 4.719C7.563 16.082 7 17.598 7 19c0 4.945 4.055 9 9 9s9-4.055 9-9c0-1.402-.563-2.918-1.344-4.5-.781-1.582-1.828-3.219-2.843-4.719-2.032-2.996-4.032-5.406-4.032-5.406zm0 3.218c.559.692 1.605 1.918 3.188 4.25.984 1.45 1.937 3.047 2.656 4.5C22.562 16.86 23 18.203 23 19c0 3.855-3.145 7-7 7s-7-3.145-7-7c0-.797.438-2.14 1.156-3.594.719-1.453 1.672-3.05 2.656-4.5 1.583-2.332 2.63-3.558 3.188-4.25zM11 19c0 2.746 2.254 5 5 5v-2a3 3 0 01-3-3z"/>
    </symbol>
    <symbol viewBox="0 0 24 24" id="icon-water-6">
      <path d="M13.858 2.809a2.567 2.567 0 00-3.716 0C7.779 5.279 4 9.872 4 14a8 8 0 0016 0c0-4.128-3.779-8.721-6.142-11.191zM12 19c-2.757 0-5-2.243-5-5a1.5 1.5 0 113 0c0 1.103.897 2 2 2a1.5 1.5 0 110 3z"/>
      <circle cx="12" cy="14" r="6" opacity=".35"/>
    </symbol>
    <symbol viewBox="0 0 24 24" id="icon-water-gun">
      <path d="M9 2.004c-1.286 0-2.875.384-4.28 1.154C3.317 3.928 2 5.213 2 7.004s1.316 3.075 2.72 3.846c1.405.77 2.994 1.154 4.28 1.154 3.296 0 6.018-1.026 8.014-2.172L20 11.004V9.002h1.297A.704.704 0 0022 8.297v-2.59a.702.702 0 00-.703-.703H20v-2l-2.998 1.164H17c-1.994-1.142-4.711-2.164-8-2.164zm0 2c2.967 0 5.356.967 7.1 2.01-.05-.002-.1-.01-.149-.01-.94 0-1.819.32-2.457.629-.338.162-1.16.37-1.59.37-.368 0-1.196-.241-1.588-.43a5.823 5.823 0 00-2.459-.57c-.941 0-1.819.321-2.457.63-.3.144-.947.302-1.398.342.015-.781.632-1.489 1.682-2.065C6.747 4.327 8.157 4.004 9 4.004zm-1.143 4c.43 0 1.256.208 1.59.369.638.309 1.515.63 2.457.63.88 0 1.762-.232 2.46-.567a1 1 0 00.001-.002c.392-.19 1.221-.43 1.586-.43.027 0 .074.014.104.016-1.74 1.032-4.113 1.984-7.055 1.984-.843 0-2.253-.325-3.316-.908-.167-.092-.302-.192-.446-.29.369-.097.72-.221 1.032-.37a1 1 0 00.001-.002c.393-.19 1.22-.43 1.586-.43zm-3.136 4.773c-.34.529-.893 1.356-1.19 1.793C2.656 15.857 2 17.083 2 18.312c0 .72.05 1.489.355 2.22.305.73 1.102 1.472 2.083 1.472.902 0 1.742-.294 2.4-.803C7.496 20.693 8 19.918 8 19.004v-1c0-.355.012-.915.123-1.277v-.002c.058-.186.174-.393.309-.518.134-.125.263-.203.568-.203h3v1h2v-3H9c-.784 0-1.472.31-1.932.738-.459.427-.714.936-.855 1.395-.243.79-.213 1.547-.213 1.867v1c0 .169-.101.392-.387.613a2 2 0 01-1.176.387c-.19 0-.115.047-.236-.242-.12-.29-.201-.866-.201-1.45 0-.192.449-1.534 1.186-2.617v-.002h.002c.305-.45.855-1.274 1.214-1.832l-1.681-1.084z"/>
    </symbol>
    <symbol viewBox="0 0 24 24" id="icon-wild-animals-sign">
      <path d="M12 1.006a1.91 1.91 0 00-1.355.555l-9.082 9.084a1.932 1.932 0 000 2.712l9.082 9.082h.001c.741.74 1.97.741 2.711 0l9.084-9.084a1.933 1.933 0 00-.002-2.71L13.357 1.56h-.002A1.914 1.914 0 0012 1.006zm0 2.027L20.967 12 12 20.967l-1.344-1.344c1.15-1.144 1.34-3.418 1.34-3.418s.556.633 2.063.272c.396-.09.791.452 1.267 0 .396-.452.635-.36.635-.541-.001-.09.159-.724-.158-.905-.952-.632-2.22-2.617-3.014-2.888a1.933 1.933 0 00-.408-.13l-.385-1.316s.556-2.167.397-2.347c-.16-.181-.634 2.167-.793 2.076-.16-.181-.396-.36-.555-.541-.16-.181.078-3.252-.08-3.342-.16-.09-.477 2.98-.477 2.98l-.554-.632C9.617 8.53 9.775 6 9.617 6s-.317 2.981-.08 3.252c.238.271 1.586 2.076 1.586 2.076l.227.875c-.062.031-.112.05-.147.03-.159-.09-.713-.634-1.11-.905-.395-.27-1.348-.36-1.507 0-.16.271.238 1.174.793 1.445.555.271.873.09.873.09s-1.326 2.926-3.053 3.303L3.035 12 12 3.033z"/>
    </symbol>

        <symbol viewBox="0 0 24 24" id="icon-gas-industry">
      <path d="M12 1s-.7 4.602-2 6c-.102-1.602-1-2.594-1-2.594-.7 2.899-3 4.282-3 6.782 0 2.8 1.906 5.113 4.406 5.812-.199-.5-.406-1.113-.406-1.813 0-2.898 2-5.5 2-5.5s2 2.602 2 5.5c0 .7-.207 1.313-.406 1.813 2.5-.7 4.406-3.012 4.406-5.813 0-2.101-.695-3.601-1.594-5 0 .102-.394 2.5-1.593 3.5C16.413 4.688 12 1 12 1zM7 18c-1.102 0-2 .898-2 2v2h14v-2c0-1.102-.898-2-2-2v2h-2v-2h-2v2h-2v-2H9v2H7z"/>
    </symbol>
    <symbol viewBox="0 0 24 24" id="icon-goal">
      <path d="M12 2C6.477 2 2 6.477 2 12s4.477 10 10 10 10-4.477 10-10c0-1.91-.54-3.7-1.469-5.219l-1.468 1.5A7.862 7.862 0 0120 12a8 8 0 11-8-8c1.363 0 2.629.367 3.75.969L17.219 3.5C15.695 2.562 13.922 2 12 2zm8.5.094l-8 7.969A1.999 1.999 0 0010 12c0 1.104.895 1.999 2 1.999a1.999 1.999 0 001.938-2.5l7.968-8zM12 6c-3.313 0-6 2.688-6 6 0 3.313 2.688 6 6 6 3.313 0 6-2.688 6-6 0-.793-.156-1.527-.438-2.219l-1.625 1.594c.036.2.063.414.063.625 0 2.21-1.79 4-4 4s-4-1.79-4-4 1.79-4 4-4c.223 0 .445.023.656.063l1.594-1.594A5.838 5.838 0 0012 6z"/>
    </symbol>
  </defs>
</svg>