<svg xmlns="http://www.w3.org/2000/svg"  viewBox="0 0 24 24" width="50px" height="50px"><path d="M10,3.499C10,4.88,11.119,6,12.499,6C13.882,6,15,4.88,15,3.499C15,2.12,13.882,1,12.499,1	C11.119,1,10,2.12,10,3.499z" opacity=".35"/><path d="M9,9.499C9,10.88,10.119,12,11.499,12C12.882,12,14,10.88,14,9.499C14,8.12,12.882,7,11.499,7C10.119,7,9,8.12,9,9.499z"/><path d="M8,13.499C8,14.88,9.119,16,10.499,16C11.882,16,13,14.88,13,13.499C13,12.12,11.882,11,10.499,11	C9.119,11,8,12.12,8,13.499z"/><path d="M18,14c-0.104,0-0.211-0.017-0.316-0.052l-3-1c-0.147-0.049-0.281-0.132-0.391-0.242l-3-3c-0.391-0.391-0.391-1.023,0-1.414	s1.023-0.391,1.414,0l2.833,2.833l2.776,0.925c0.524,0.175,0.807,0.741,0.632,1.265C18.809,13.735,18.419,14,18,14z"/><path d="M6,22c-0.22,0-0.442-0.072-0.627-0.221c-0.43-0.347-0.498-0.976-0.151-1.406l2.664-3.306l1.291-3.283	c0.202-0.513,0.781-0.768,1.297-0.564c0.514,0.202,0.767,0.783,0.564,1.297L9.69,17.941c-0.037,0.094-0.088,0.182-0.152,0.261	l-2.759,3.425C6.581,21.873,6.292,22,6,22z"/><path d="M15,22c-0.432,0-0.831-0.282-0.959-0.718l-1.098-3.729l-2.841-3.54c-0.346-0.431-0.277-1.06,0.154-1.406	c0.43-0.346,1.06-0.278,1.406,0.154l2.965,3.693c0.082,0.102,0.143,0.218,0.18,0.343l1.154,3.918	c0.156,0.53-0.147,1.086-0.677,1.242C15.188,21.987,15.093,22,15,22z"/><path d="M5,13c-0.226,0-0.453-0.076-0.64-0.232c-0.424-0.354-0.481-0.984-0.128-1.408l2.5-3c0.134-0.161,0.314-0.275,0.517-0.328	l3.735-0.97c0.537-0.14,1.081,0.182,1.219,0.716c0.139,0.535-0.182,1.081-0.716,1.219L8.062,9.887L5.768,12.64	C5.57,12.877,5.286,13,5,13z"/><polygon points="5.113,20.539 7.461,16.897 8.016,13.305 9.809,13 8.802,17.365"/><polygon points="6.889,10.516 11.667,9.667 11.185,8.071 7.196,9.276"/><polygon points="15.996,11.405 14.202,12.144 11.801,9.325 13.594,8.137"/><polygon points="10.747,13.731 9.526,15.803 12.659,17.67 14,21 14,16.945"/><rect width="5" height="4.101" x="8.497" y="9.465" transform="rotate(14.04 10.998 11.517)"/></svg>